<?xml version="1.0" standalone="no"?>
<!DOCTYPE svg PUBLIC "-//W3C//DTD SVG 1.1//EN" "http://www.w3.org/Graphics/SVG/1.1/DTD/svg11.dtd" >
<svg xmlns="http://www.w3.org/2000/svg">
<metadata>Generated by IcoMoon</metadata>
<defs>
<font id="topads" horiz-adv-x="1024">
<font-face units-per-em="1024" ascent="960" descent="-64" />
<missing-glyph horiz-adv-x="1024" />
<glyph unicode="&#x20;" horiz-adv-x="512" d="" />
<glyph unicode="&#xe900;" glyph-name="icon-triangle-up" horiz-adv-x="1365" d="M682.667 960l-682.667-884.682h1365.333z" />
<glyph unicode="&#xe901;" glyph-name="icon-triangle-down" horiz-adv-x="1365" d="M682.667 75.318l-682.667 884.682h1365.333z" />
<glyph unicode="&#xe902;" glyph-name="icon-tooltip" d="M604.764 631.474c-14.713-13.474-32.229-20.318-52.817-20.318-20.318 0-38.104 6.845-52.763 20.318-14.498 13.474-21.989 30.019-21.989 49.368 0 19.187 7.491 35.678 21.989 49.421 14.659 13.474 32.445 20.318 52.763 20.318 20.588 0 38.104-6.845 52.817-20.318 14.498-13.743 21.773-30.235 21.773-49.421 0-19.348-7.276-35.894-21.773-49.368v0zM610.207 182.531c-25.223-9.863-45.164-17.3-60.093-22.528-14.875-5.282-32.229-7.923-52.008-7.923-30.397 0-54.11 7.491-70.872 22.42-16.923 14.713-25.169 33.63-25.169 56.428 0 8.839 0.593 17.893 1.779 27.163 1.24 9.324 3.288 19.618 6.036 31.259l31.475 111.023c2.803 10.671 5.174 20.749 7.006 30.019 1.832 9.701 2.856 18.324 2.856 26.193 0 14.12-3.018 23.983-8.893 29.642-5.821 5.605-16.923 8.246-33.415 8.246-8.030 0-16.492-1.186-25.007-3.611-8.461-2.641-15.683-5.066-21.72-7.276l8.246 34.061c20.534 8.408 40.259 15.522 59.015 21.558s36.433 9.054 53.194 9.054c30.181 0 53.41-7.437 69.686-21.989 16.33-14.498 24.63-33.415 24.63-56.751 0-4.851-0.593-13.312-1.617-25.384-1.186-12.342-3.234-23.39-6.306-33.469l-31.151-110.592c-2.641-8.893-4.904-19.187-7.114-30.451-1.994-11.318-2.964-19.941-2.964-25.762 0-14.767 3.395-24.845 9.863-30.073 6.629-5.497 17.947-7.976 34.223-7.976 7.653 0 16.168 1.347 25.816 3.988 9.485 2.587 16.492 5.012 20.911 7.006l-8.408-34.277zM509.262 960.016c-281.223 0-509.251-228.029-509.251-509.305 0-281.223 228.029-509.521 509.251-509.521 281.277 0 509.521 228.298 509.521 509.521 0 281.277-228.244 509.305-509.521 509.305v0z" />
<glyph unicode="&#xe903;" glyph-name="icon-circle" d="M1024 448c0-282.77-229.23-512-512-512s-512 229.23-512 512c0 282.77 229.23 512 512 512s512-229.23 512-512z" />
<glyph unicode="&#xe904;" glyph-name="icon-plus" d="M546.133 482.133v477.867h-68.267v-477.867h-477.867v-68.267h477.867v-477.867h68.267v477.867h477.867v68.267h-477.867z" />
<glyph unicode="&#xe905;" horiz-adv-x="973" d="M640 785.92c-14.138 0-25.6-11.462-25.6-25.6v-317.44c0-14.138 11.462-25.6 25.6-25.6h194.56c14.138 0 25.6 11.462 25.6 25.6v317.44c0 14.138-11.462 25.6-25.6 25.6h-194.56zM640 826.88c27.155 0 47.522 0 61.099 0 29.658 0 74.145 0 133.461 0 36.76 0 66.56-29.8 66.56-66.56v-317.44c0-36.76-29.8-66.56-66.56-66.56-59.597 0-104.294 0-134.092 0-13.437 0-33.593 0-60.468 0-36.76 0-66.56 29.8-66.56 66.56v317.44c0 36.76 29.8 66.56 66.56 66.56z" />
<glyph unicode="&#xe906;" horiz-adv-x="973" d="M440.32 908.8h245.76v-675.84h-245.76v675.84z" />
<glyph unicode="&#xe907;" horiz-adv-x="973" d="M209.92 908.8c-14.138 0-25.6-11.462-25.6-25.6v-563.2c0-14.138 11.462-25.6 25.6-25.6h440.32c14.138 0 25.6 11.462 25.6 25.6v563.2c0 14.138-11.462 25.6-25.6 25.6h-440.32zM209.92 949.76h440.32c36.76 0 66.56-29.8 66.56-66.56v-563.2c0-36.76-29.8-66.56-66.56-66.56h-440.32c-36.76 0-66.56 29.8-66.56 66.56v563.2c0 36.76 29.8 66.56 66.56 66.56z" />
<glyph unicode="&#xe908;" horiz-adv-x="973" d="M184.32 908.8h245.76v-675.84h-245.76v675.84z" />
<glyph unicode="&#xe909;" horiz-adv-x="973" d="M460.8 908.8v-460.8h-30.72v460.8z" />
<glyph unicode="&#xe90a;" horiz-adv-x="973" d="M102.4 704h204.8v-256h-204.8v256z" />
<glyph unicode="&#xe90b;" horiz-adv-x="973" d="M102.4 683.52v-286.72h163.84v286.72h-163.84zM87.040 724.48h194.56c14.138 0 25.6-11.462 25.6-25.6v-317.44c0-14.138-11.462-25.6-25.6-25.6h-194.56c-14.138 0-25.6 11.462-25.6 25.6v317.44c0 14.138 11.462 25.6 25.6 25.6z" />
<glyph unicode="&#xe90c;" horiz-adv-x="1138" d="M792.865-20.291c7.279-10.245 21.485-12.649 31.73-5.37s12.649 21.485 5.37 31.73c-56.379 79.348-98.663 138.86-126.853 178.534l-268.386 0.085c-28.203-39.693-70.507-99.233-126.913-178.618-7.279-10.245-4.875-24.451 5.37-31.73s24.451-4.875 31.73 5.37c63.696 89.647 111.469 156.882 143.317 201.705 26.886 37.84 137.926 32.923 166.559-7.375 30.684-43.184 76.709-107.961 138.077-194.33z" />
<glyph unicode="&#xe90d;" horiz-adv-x="1138" d="M56.889 903.111h538.947v-682.667h-538.947v682.667z" />
<glyph unicode="&#xe90e;" horiz-adv-x="1138" d="M113.778 903.111c-31.419 0-56.889-25.47-56.889-56.889v-568.889c0-31.419 25.47-56.889 56.889-56.889h910.222c31.419 0 56.889 25.47 56.889 56.889v568.889c0 31.419-25.47 56.889-56.889 56.889h-910.222zM113.778 948.622h910.222c56.554 0 102.4-45.846 102.4-102.4v-568.889c0-56.554-45.846-102.4-102.4-102.4h-910.222c-56.554 0-102.4 45.846-102.4 102.4v568.889c0 56.554 45.846 102.4 102.4 102.4z" />
<glyph unicode="&#xe90f;" horiz-adv-x="1138" d="M56.889 903.111h1024v-56.889h-1024v56.889z" />
<glyph unicode="&#xe910;" horiz-adv-x="1138" d="M332.013 502.251l267.071-173.397 337.099 359.105c8.601 9.163 8.146 23.564-1.017 32.165s-23.564 8.146-32.165-1.017l-311.053-331.358-268.653 174.424-161.234-189.108c-8.154-9.563-7.011-23.926 2.552-32.080s23.926-7.011 32.080 2.552l135.319 158.713z" />
<glyph unicode="&#xe911;" horiz-adv-x="1138" d="M383.251 533.333c0-31.419-25.47-56.889-56.889-56.889s-56.889 25.47-56.889 56.889c0 31.419 25.47 56.889 56.889 56.889s56.889-25.47 56.889-56.889z" />
<glyph unicode="&#xe912;" horiz-adv-x="1138" d="M652.725 362.667c0-31.419-25.47-56.889-56.889-56.889s-56.889 25.47-56.889 56.889c0 31.419 25.47 56.889 56.889 56.889s56.889-25.47 56.889-56.889z" />
<glyph unicode="&#xe913;" horiz-adv-x="1138" d="M976.094 704c0-31.419-25.47-56.889-56.889-56.889s-56.889 25.47-56.889 56.889c0 31.419 25.47 56.889 56.889 56.889s56.889-25.47 56.889-56.889z" />
<glyph unicode="&#xe914;" horiz-adv-x="1132" d="M413.438-31.945h-372.653v706.241l183.452 250.662h189.202z" />
<glyph unicode="&#xe915;" horiz-adv-x="1132" d="M252.171 907.737c1.012 1.314 2.053 2.666 3.132 4.066l-17.079-8.403h10.606l3.34 4.336zM72.451 24.661c0-19.356 15.691-35.048 35.048-35.048h611.879c19.356 0 35.048 15.691 35.048 35.048v843.692c0 19.356-15.691 35.048-35.048 35.048h-470.546c-24.236-31.464-29.871-38.78-169.927-220.606-2.12-2.753-4.271-5.545-6.454-8.378v-649.756zM29.335 24.661v653.076c-1.071 5.254-0.027 11.112 4.175 16.772 0.134 0.179 62.68 81.38 187.636 243.604 2.041 2.649 4.638 4.75 7.562 6.188 3.152 1.523 6.443 2.247 9.747 2.214h480.923c43.168 0 78.163-34.995 78.163-78.163v-843.692c0-43.168-34.995-78.163-78.163-78.163h-611.879c-43.168 0-78.163 34.995-78.163 78.163z" />
<glyph unicode="&#xe916;" horiz-adv-x="1132" d="M57.505 703.385v-43.116h218.306v260.545h-43.116v-217.43z" />
<glyph unicode="&#xe917;" horiz-adv-x="1132" d="M516.659 459.953l454.542-454.542c19.091-19.091 50.037-19.112 69.154-0.047 19.081 19.081 19.081 49.942 0.047 68.976l-454.542 454.542c-19.091 19.091-50.037 19.112-69.154 0.047-19.081-19.081-19.081-49.942-0.047-68.976zM616.348 559.369l454.542-454.542c35.872-35.872 35.872-94.032 0-129.904-36.050-35.952-94.263-35.912-130.176 0l-454.542 454.542c-35.872 35.872-35.872 94.032 0 129.904 36.050 35.952 94.263 35.912 130.176 0z" />
<glyph unicode="&#xe918;" horiz-adv-x="1132" d="M926.99 437.221c0-178.591-144.777-323.368-323.368-323.368s-323.368 144.777-323.368 323.368c0 178.591 144.777 323.368 323.368 323.368s323.368-144.777 323.368-323.368z" />
<glyph unicode="&#xe919;" horiz-adv-x="1132" d="M672.099 966.341h452.844v-1018.9h-452.844v1018.9z" />
<glyph unicode="&#xe91a;" horiz-adv-x="1132" d="M604.819 130.796c171.199 0 309.983 138.784 309.983 309.983s-138.784 309.983-309.983 309.983c-171.199 0-309.983-138.784-309.983-309.983s138.784-309.983 309.983-309.983zM604.819 87.68c-195.011 0-353.099 158.088-353.099 353.099s158.088 353.099 353.099 353.099c195.011 0 353.099-158.088 353.099-353.099s-158.088-353.099-353.099-353.099z" />
<glyph unicode="&#xe91b;" horiz-adv-x="1132" d="M820.821 511.13c-39.023 83.036-122.617 137.196-216.002 137.196-11.906 0-21.558-9.652-21.558-21.558s9.652-21.558 21.558-21.558c76.519 0 145-44.368 176.981-112.419 5.064-10.776 17.904-15.406 28.68-10.342s15.406 17.904 10.342 28.68z" />
<glyph unicode="&#xe91c;" horiz-adv-x="870" d="M51.2 908.8h409.6v-921.6h-409.6v921.6z" />
<glyph unicode="&#xe91d;" horiz-adv-x="1265" d="M661.831 899.765h-474.796c-70.030 0-126.8-56.77-126.8-126.8 0-2.39 0.068-4.779 0.203-7.165l6.229-110.062c0.843-14.887 9.238-28.309 22.255-35.581v0 0c12.938-7.228 21.051-20.797 21.293-35.616l8.082-494.409c0.537-32.879 27.344-59.251 60.227-59.251h484.064l-0.757 868.884z" />
<glyph unicode="&#xe91e;" glyph-name="icon-clock" d="M512 901.486c-248.686 0-453.486-204.8-453.486-453.486s204.8-453.486 453.486-453.486c248.686 0 453.486 204.8 453.486 453.486s-204.8 453.486-453.486 453.486zM512 60.343c-212.114 0-387.657 175.543-387.657 387.657s175.543 387.657 387.657 387.657c212.114 0 387.657-175.543 387.657-387.657s-175.543-387.657-387.657-387.657zM760.686 418.743h-212.114c0 0 0 0-7.314 0 0 0 0 0 0 7.314v204.8c0 21.943-14.629 36.571-36.571 36.571s-36.571-14.629-36.571-36.571v-256c0-21.943 14.629-36.571 36.571-36.571h256c21.943 0 36.571 14.629 36.571 36.571 0 29.257-14.629 43.886-36.571 43.886z" />
<glyph unicode="&#xe91f;" glyph-name="icon-close" d="M636.476 664.857l-341.333-341.333c-13.885-13.885-13.885-36.398 0-50.283s36.398-13.885 50.283 0l341.333 341.333c13.885 13.885 13.885 36.398 0 50.283s-36.398 13.885-50.283 0zM686.759 323.524l-341.333 341.333c-13.885 13.885-36.398 13.885-50.283 0s-13.885-36.398 0-50.283l341.333-341.333c13.885-13.885 36.398-13.885 50.283 0s13.885 36.398 0 50.283zM490.951-21.618c-270.988 0-490.667 219.679-490.667 490.667s219.679 490.667 490.667 490.667c270.988 0 490.667-219.679 490.667-490.667s-219.679-490.667-490.667-490.667zM490.951 49.493c231.714 0 419.556 187.841 419.556 419.556s-187.841 419.556-419.556 419.556c-231.714 0-419.556-187.841-419.556-419.556s187.841-419.556 419.556-419.556z" />
<glyph unicode="&#xe920;" horiz-adv-x="1126" d="M562.216 474.65c-42.695 0-79.957 23.694-99.356 58.596-19.399-34.901-56.661-58.596-99.356-58.596s-79.957 23.694-99.356 58.596c-18.972-34.133-55.068-57.372-96.54-58.396v-422.059c0-65.052 15.9-80.924 80.953-80.924h142.791v309.76c0 48.839 39.708 88.548 88.519 88.548h82.347v104.476z" />
<glyph unicode="&#xe921;" horiz-adv-x="1126" d="M426.055-42.351v323.982c0 29.742 24.090 53.845 53.817 53.845h164.665c29.735 0 53.845-24.111 53.845-53.845v-323.982c0-11.311 9.169-20.48 20.48-20.48s20.48 9.169 20.48 20.48v323.982c0 52.356-42.449 94.805-94.805 94.805h-164.665c-52.353 0-94.777-42.446-94.777-94.805v-323.982c0-11.311 9.169-20.48 20.48-20.48s20.48 9.169 20.48 20.48z" />
<glyph unicode="&#xe922;" horiz-adv-x="1126" d="M950.554 488.883v-436.082c0-61.651-13.019-74.667-74.695-74.667h-627.314c-61.66 0-74.695 13.029-74.695 74.667v436.082c0 11.311-9.169 20.48-20.48 20.48s-20.48-9.169-20.48-20.48v-436.082c0-84.264 31.378-115.627 115.655-115.627h627.314c84.295 0 115.655 31.352 115.655 115.627v436.082c0 11.311-9.169 20.48-20.48 20.48s-20.48-9.169-20.48-20.48z" />
<glyph unicode="&#xe923;" horiz-adv-x="1126" d="M1000.092 857.745l78.551-263.655 0.853-5.848c0-66.2-53.647-119.836-119.836-119.836-41.358 0-77.82 20.942-99.356 52.805-21.536-31.863-57.998-52.805-99.356-52.805-41.37 0-77.829 20.938-99.361 52.801-21.54-31.862-58.009-52.801-99.38-52.801-41.358 0-77.82 20.942-99.356 52.805-21.536-31.863-57.998-52.805-99.356-52.805s-77.82 20.942-99.356 52.805c-21.536-31.863-57.998-52.805-99.356-52.805-66.189 0-119.836 53.637-119.836 119.836l0.853 5.848 78.499 263.472c9.531 34.011 40.542 57.507 75.87 57.507h724.11c35.259 0 66.198-23.407 75.818-57.324zM960.796 846.189c-4.686 16.647-19.561 27.92-36.522 27.92h-724.11c-16.969 0-31.856-11.278-36.522-27.92l-77.69-260.766c1.484-42.269 36.202-76.056 78.827-76.056 43.569 0 78.876 35.3 78.876 78.876 0 27.307 40.96 27.307 40.96 0 0-43.576 35.307-78.876 78.876-78.876s78.876 35.3 78.876 78.876c0 27.307 40.96 27.307 40.96 0 0-43.576 35.307-78.876 78.876-78.876 43.594 0 78.905 35.297 78.905 78.876 0 27.307 40.96 27.307 40.96 0 0-43.587 35.289-78.876 78.876-78.876 43.569 0 78.876 35.3 78.876 78.876 0 27.307 40.96 27.307 40.96 0 0-43.576 35.307-78.876 78.876-78.876 42.625 0 77.343 33.787 78.827 76.056l-77.69 260.766z" />
<glyph unicode="&#xe924;" horiz-adv-x="1126" d="M782.531 864.873l56.889-280.707c2.247-11.085 13.054-18.251 24.14-16.004s18.251 13.054 16.004 24.14l-56.889 280.707c-2.247 11.085-13.054 18.251-24.14 16.004s-18.251-13.054-16.004-24.14z" />
<glyph unicode="&#xe925;" horiz-adv-x="1126" d="M615.76 867.127l24.96-280.707c1.002-11.266 10.947-19.587 22.213-18.586s19.587 10.947 18.586 22.213l-24.96 280.707c-1.002 11.266-10.947 19.587-22.213 18.586s-19.587-10.947-18.586-22.213z" />
<glyph unicode="&#xe926;" horiz-adv-x="1126" d="M301.128 873.009l-56.889-280.707c-2.247-11.085 4.919-21.893 16.004-24.14s21.893 4.919 24.14 16.004l56.889 280.707c2.247 11.085-4.919 21.893-16.004 24.14s-21.893-4.919-24.14-16.004z" />
<glyph unicode="&#xe927;" horiz-adv-x="1126" d="M464.682 876.282l-17.92-280.707c-0.721-11.288 7.846-21.023 19.134-21.743s21.023 7.846 21.743 19.134l17.92 280.707c0.721 11.288-7.846 21.023-19.134 21.743s-21.023-7.846-21.743-19.134z" />
<glyph unicode="&#xe928;" glyph-name="icon-delete" horiz-adv-x="796" d="M642.906 627.366l-39.253-595.058c-0.317-4.091-3.962-7.508-8.38-7.563l-438.26 0.002c-4.064 0.053-7.709 3.47-8.049 7.875l-38.66 594.717c-1.019 15.676-14.553 27.558-30.23 26.539s-27.558-14.553-26.539-30.23l38.684-595.058c2.627-34.11 30.573-60.309 64.44-60.73l438.967-0.002c34.22 0.423 62.166 26.623 64.769 60.392l39.276 595.371c1.034 15.675-10.835 29.221-26.51 30.255s-29.221-10.835-30.255-26.51zM528.498 762.596v56.889c0 47.128-38.205 85.333-85.333 85.333h-133.12c-47.128 0-85.333-38.205-85.333-85.333v-56.889c0-15.709 12.735-28.444 28.444-28.444s28.444 12.735 28.444 28.444v56.889c0 15.709 12.735 28.444 28.444 28.444h133.12c15.709 0 28.444-12.735 28.444-28.444v-56.889c0-15.709 12.735-28.444 28.444-28.444s28.444 12.735 28.444 28.444zM56.889 730.169v-76.231h639.431v76.231h-639.431zM56.889 787.058h639.431c31.419 0 56.889-25.47 56.889-56.889v-76.231c0-31.419-25.47-56.889-56.889-56.889h-639.431c-31.419 0-56.889 25.47-56.889 56.889v76.231c0 31.419 25.47 56.889 56.889 56.889zM319.716-3.698v380.018c0 15.709-12.735 28.444-28.444 28.444s-28.444-12.735-28.444-28.444v-380.018c0-15.709 12.735-28.444 28.444-28.444s28.444 12.735 28.444 28.444zM492.658-3.698v380.018c0 15.709-12.735 28.444-28.444 28.444s-28.444-12.735-28.444-28.444v-380.018c0-15.709 12.735-28.444 28.444-28.444s28.444 12.735 28.444 28.444z" />
<glyph unicode="&#xe929;" glyph-name="icon-etalase" horiz-adv-x="870" d="M72.594 457.234h727.68c14.138 0 25.6 11.462 25.6 25.6s-11.462 25.6-25.6 25.6h-727.68c-14.138 0-25.6-11.462-25.6-25.6s11.462-25.6 25.6-25.6zM176.564 75.516l-23.040-99.84c-3.179-13.776 5.412-27.522 19.188-30.701s27.522 5.412 30.701 19.188l23.040 99.84c3.179 13.776-5.412 27.522-19.188 30.701s-27.522-5.412-30.701-19.188zM660.953 64.004l23.040-99.84c3.179-13.776 16.924-22.367 30.701-19.188s22.367 16.924 19.188 30.701l-23.040 99.84c-3.179 13.776-16.924 22.367-30.701 19.188s-22.367-16.924-19.188-30.701zM436.023 602.331c-45.95 0-83.2 37.25-83.2 83.2s37.25 83.2 83.2 83.2c45.95 0 83.2-37.25 83.2-83.2s-37.25-83.2-83.2-83.2zM436.023 653.531c17.673 0 32 14.327 32 32s-14.327 32-32 32c-17.673 0-32-14.327-32-32s14.327-32 32-32zM436.023 205.714c-45.95 0-83.2 37.25-83.2 83.2s37.25 83.2 83.2 83.2c45.95 0 83.2-37.25 83.2-83.2s-37.25-83.2-83.2-83.2zM436.023 256.914c17.673 0 32 14.327 32 32s-14.327 32-32 32c-17.673 0-32-14.327-32-32s14.327-32 32-32zM168.96 867.84c-42.415 0-76.8-34.385-76.8-76.8v-614.766c0-42.415 34.385-76.8 76.8-76.8h533.851c42.415 0 76.8 34.385 76.8 76.8v614.766c0 42.415-34.385 76.8-76.8 76.8h-533.851zM168.96 919.040h533.851c70.692 0 128-57.308 128-128v-614.766c0-70.692-57.308-128-128-128h-533.851c-70.692 0-128 57.308-128 128v614.766c0 70.692 57.308 128 128 128z" />
<glyph unicode="&#xe92a;" glyph-name="icon-images" d="M918.869 771.584h-83.968v86.016c-1.116 56.884-47.553 102.411-104.448 102.4h-626.688c-56.629-0.359-102.656-45.781-103.765-102.4v-626.688c0-57.685 46.763-104.448 104.448-104.448h83.968v-88.064c1.116-56.884 47.553-102.411 104.448-102.4h626.005c57.16-0.385 104.011 45.25 105.131 102.4v628.736c0.001 27.82-11.097 54.491-30.833 74.098s-46.478 30.532-74.298 30.35zM69.632 857.6c0 9.234 3.668 18.089 10.197 24.619s15.385 10.197 24.619 10.197h626.688c19.228 0 34.816-15.588 34.816-34.816v-312.661l-150.869 116.736c-14.654 11.406-35.681 9.304-47.787-4.779l-209.579-246.443-99.669 85.333-30.72 25.941c-10.904 9.214-26.328 10.837-38.912 4.096-3.563-1.694-6.799-4.005-9.557-6.827l-109.227-119.467v458.069zM69.632 230.912v68.267l118.784 126.976 19.115 21.845 50.517-43.008 80.555-68.267c6.929-6.099 16.069-9.063 25.259-8.192 9.288 0.734 17.894 5.16 23.893 12.288l210.944 243.712 166.571-129.707v-228.011c0-19.228-15.588-34.816-34.816-34.816h-626.688c-9.481 0.169-18.482 4.198-24.925 11.156s-9.768 16.242-9.209 25.708v2.048zM957.099 42.496c0-19.228-15.588-34.816-34.816-34.816h-629.419c-17.736-0.123-32.73 13.107-34.816 30.72v86.016h473.088c57.685 0 104.448 46.763 104.448 104.448v473.088h83.285c19.228 0 34.816-15.588 34.816-34.816l3.413-624.64zM262.827 602.965c10.719-3.936 22.032-6.014 33.451-6.144 55.648-0.005 100.97 44.709 101.717 100.352v0c0 51.605-38.644 95.033-89.899 101.028s-98.879-27.341-110.789-77.552c-11.91-50.212 15.667-101.386 64.155-119.049l1.365 1.365zM296.277 665.088c-11.43-0.006-22.036 5.944-27.989 15.701-3.736 5.19-5.872 11.36-6.144 17.749 0 18.851 15.282 34.133 34.133 34.133s34.133-15.282 34.133-34.133v0c0.002-8.991-3.616-17.605-10.038-23.898s-15.106-9.736-24.096-9.553v0z" />
<glyph unicode="&#xe92b;" glyph-name="icon-unlock" horiz-adv-x="960" d="M832 0c10.691-0.288 20.182 3.387 27.236 10.185s11.078 16.146 11.164 25.655l0.001 447.714c-0.088 9.796-4.111 19.144-11.165 25.942s-16.545 10.472-27.236 10.185l-640.898 0.013c-9.792 0.275-19.284-3.4-26.337-10.197s-11.078-16.146-11.164-25.655l-0.001-447.714c0.088-9.796 4.111-19.144 11.165-25.942s16.545-10.472 27.236-10.185h640zM192.898-63.987c-26.972-0.758-53.114 9.364-72.544 28.087s-30.512 44.473-30.755 71.74l0.001 448.286c0.242 26.981 11.324 52.731 30.754 71.454s45.572 28.845 71.645 28.1l639.102-0.013c26.972 0.758 53.114-9.364 72.544-28.087s30.512-44.473 30.755-71.74l-0.001-448.286c-0.242-26.981-11.324-52.731-30.754-71.454-19.311-18.609-45.255-28.721-72.052-28.1l-638.695 0.013zM69.76 691.2v55.68c-2.835 41.708 11.539 80.462 39.373 108.594s66.433 42.918 105.938 40.582c43.492 2.5 82.234-12.218 110.186-40.369s42.394-66.996 39.621-106.57l-0.078-173.117c0-17.673 14.327-32 32-32s32 14.327 32 32v170.88c3.985 55.744-17.175 112.657-58.128 153.901s-97.715 62.807-155.723 59.155c-53.981 3.43-110.532-18.233-151.312-59.45s-61.839-97.996-57.8-155.836l-0.078-53.451c0-17.673 14.327-32 32-32s32 14.327 32 32zM382.72 337.28c0 70.692 57.308 128 128 128s128-57.308 128-128c0.565-30.452-10.507-60.383-30.72-83.473v-68.207c0-53.019-42.981-96-96-96s-96 42.981-96 96l0.036 67.543c-21.123 22.672-33.145 52.623-33.316 84.137zM574.725 336.692c-0.005 35.934-28.659 64.588-64.005 64.588s-64-28.654-64-63.826c0.096-17.776 8.049-34.599 21.724-45.956 7.748-6.434 12.015-16.141 11.517-26.2-0.043-0.865-0.043-1.731 0.039-4.178v-75.52c0-17.673 14.327-32 32-32s32 14.327 32 32l0.049 76.658c0.053 0.947 0.053 1.897 0 2.844-0.541 9.715 3.369 19.149 10.623 25.634 13.054 11.67 20.375 28.449 20.053 45.956z" />
<glyph unicode="&#xe92c;" glyph-name="icon-email" horiz-adv-x="1195" d="M128 826.88c-23.564 0-42.667-19.103-42.667-42.667v-677.547c0-23.564 19.103-42.667 42.667-42.667h938.667c23.564 0 42.667 19.103 42.667 42.667v677.547c0 23.564-19.103 42.667-42.667 42.667h-938.667zM128 912.213h938.667c70.692 0 128-57.308 128-128v-677.547c0-70.692-57.308-128-128-128h-938.667c-70.692 0-128 57.308-128 128v677.547c0 70.692 57.308 128 128 128zM421.4 470.63l-374.613-392.533c-16.269-17.047-15.638-44.055 1.409-60.323s44.055-15.638 60.323 1.409l374.613 392.533c16.269 17.047 15.638 44.055-1.409 60.323s-44.055 15.638-60.323-1.409zM1130.192 94.918l-356.693 379.733c-16.133 17.175-43.135 18.020-60.31 1.887s-18.020-43.135-1.887-60.31l356.693-379.733c16.133-17.175 43.135-18.020 60.31-1.887s18.020 43.135 1.887 60.31zM1068.068 853.609l-331.093-350.72c-36.298-38.168-86.813-59.839-139.641-59.839s-103.343 21.671-139.749 59.952l-331.021 349.791c-16.197 17.115-43.202 17.86-60.317 1.663s-17.86-43.202-1.663-60.317l331.093-349.867c52.586-55.296 125.453-86.556 201.657-86.556s149.071 31.26 201.585 86.48l331.201 350.834c16.176 17.135 15.399 44.139-1.736 60.315s-44.139 15.399-60.315-1.736z" />
<glyph unicode="&#xe92d;" glyph-name="icon-eye-closed" horiz-adv-x="1365" d="M586.016 142.328c109.553-30.139 226.894-7.447 317.312 61.361s143.563 175.858 143.712 289.481v15.416c0 23.564-19.103 42.667-42.667 42.667s-42.667-19.103-42.667-42.667v-15.36c-0.114-86.957-40.813-168.936-110.056-221.631s-159.104-70.072-243-46.991c-22.72 6.25-46.205-7.101-52.456-29.821s7.101-46.205 29.821-52.456zM982.464 699.409c-74.57 118.561-210.498 183.885-349.661 168.040s-256.926-110.056-302.933-242.346c-46.007-132.29-12.114-279.242 87.186-378.019 16.706-16.618 43.721-16.547 60.34 0.16s16.547 43.721-0.16 60.34c-76.045 75.644-102.001 188.181-66.768 289.49s125.416 173.456 231.988 185.591c106.572 12.135 210.667-37.891 267.773-128.686 12.546-19.947 38.886-25.947 58.833-13.401s25.947 38.886 13.401 58.833zM116.673 450.53c31.712 45.039 69.678 90.133 113.731 132.138 124.656 118.864 271.971 189.599 442.023 189.599 107.514 0.298 213.157-27.214 306.766-79.856 20.539-11.55 46.553-4.264 58.103 16.275s4.264 46.553-16.275 58.103c-106.45 59.863-226.585 91.149-348.712 90.81-194.203 0-361.448-80.305-500.792-213.174-48.348-46.101-89.861-95.408-124.616-144.769-21.020-29.855-35.27-53.384-42.758-67.464-7.205-13.549-6.579-29.923 1.639-42.883 68.788-108.473 160.71-200.394 269.182-269.182 19.9-12.62 46.263-6.718 58.882 13.182s6.718 46.263-13.182 58.882c-90.591 57.449-168.385 132.784-228.669 221.295 6.386 10.245 14.618 22.752 24.679 37.042zM1247.088 383.862c-33.488-41.292-73.313-82.655-119.224-121.218-130.312-109.457-282.388-174.751-455.438-174.751-66.392-0.29-132.242 9.696-195.386 29.6-22.474 7.084-46.436-5.392-53.52-27.866s5.392-46.436 27.866-53.52c71.563-22.558 146.193-33.874 221.227-33.547 194.87 0 365.514 73.266 510.136 194.742 50.316 42.264 93.871 87.501 130.616 132.809 22.256 27.442 37.47 49.097 45.544 62.093 8.66 13.939 8.558 31.61-0.263 45.448-50.694 79.535-112.59 151.345-183.777 213.217-17.785 15.458-44.734 13.571-60.192-4.214s-13.571-44.734 4.214-60.192c57.95-50.367 109.157-107.948 152.384-171.31-6.468-8.853-14.538-19.394-24.187-31.291zM1193.554 913.057l-1121.28-900.267c-18.375-14.753-21.311-41.608-6.558-59.982s41.608-21.311 59.982-6.558l1121.28 900.267c18.375 14.753 21.311 41.608 6.558 59.982s-41.608 21.311-59.982 6.558z" />
<glyph unicode="&#xe92e;" glyph-name="icon-lock" horiz-adv-x="843" d="M698.729 49.206c10.062-0.271 18.995 3.188 25.634 9.585s10.426 15.196 10.507 24.146l0.001 421.377c-0.083 9.219-3.87 18.018-10.509 24.416s-15.572 9.856-25.634 9.585l-603.199 0.012c-9.216 0.259-18.149-3.2-24.788-9.597s-10.426-15.196-10.507-24.146l-0.001-421.377c0.083-9.219 3.87-18.018 10.509-24.416s15.572-9.856 25.634-9.585h602.353zM97.222-11.017c-25.385-0.713-49.99 8.813-68.276 26.435s-28.717 41.857-28.946 67.52l0.001 421.917c0.227 25.394 10.658 49.629 28.945 67.251s42.891 27.148 67.431 26.447l601.507-0.012c25.385 0.713 49.99-8.813 68.276-26.435s28.717-41.857 28.946-67.52l-0.001-421.917c-0.227-25.394-10.658-49.629-28.945-67.251-18.175-17.514-42.593-27.032-67.814-26.447l-601.124 0.012zM241.33 590.479v168.659c-2.668 39.254 10.86 75.729 37.057 102.206s62.525 40.394 99.706 38.195c40.737 2.199 77.066-11.718 103.262-38.195s39.725-62.952 37.13-100.108l-0.073-162.926c0-16.634 13.484-30.118 30.118-30.118s30.118 13.484 30.118 30.118v160.828c3.729 52.34-16.092 105.779-54.473 144.571s-91.606 59.181-146.081 55.96c-50.919 3.221-104.144-17.168-142.525-55.96s-58.202-92.232-54.4-146.669l-0.073-166.561c0-16.634 13.484-30.118 30.118-30.118s30.118 13.484 30.118 30.118zM271.059 357.647c0 66.534 53.937 120.471 120.471 120.471s120.471-53.937 120.471-120.471c0.532-28.661-9.889-56.831-28.913-78.563v-64.195c0-49.901-40.452-90.353-90.353-90.353s-90.353 40.452-90.353 90.353l0.034 63.57c-19.88 21.339-31.196 49.527-31.356 79.188zM451.77 357.093c-0.005 33.821-26.973 60.789-60.24 60.789s-60.235-26.968-60.236-60.072c0.091-16.73 7.576-32.564 20.447-43.252 7.292-6.056 11.308-15.192 10.839-24.659-0.040-0.814-0.040-1.629 0.037-3.932v-71.078c0-16.634 13.484-30.118 30.118-30.118s30.118 13.484 30.118 30.118l0.047 72.148c0.050 0.892 0.050 1.785 0 2.677-0.509 9.144 3.17 18.022 9.998 24.126 12.286 10.984 19.177 26.775 18.874 43.252z" />
<glyph unicode="&#xe92f;" glyph-name="icon-eye-open" horiz-adv-x="1638" d="M819.2 86.528c-240.92 0-436.224 195.304-436.224 436.224s195.304 436.224 436.224 436.224c240.92 0 436.224-195.304 436.224-436.224s-195.304-436.224-436.224-436.224zM819.2 188.928c184.366 0 333.824 149.458 333.824 333.824s-149.458 333.824-333.824 333.824c-184.366 0-333.824-149.458-333.824-333.824s149.458-333.824 333.824-333.824zM139.104 390.335c37.281-49.227 82.134-98.543 134.441-144.518 148.541-130.559 326.028-208.441 533.367-208.441 207.687 0 390.191 78.178 546.57 209.226 55.090 46.167 102.877 95.685 143.060 145.117 11.708 14.403 21.478 27.145 29.282 37.816-8.176 12.040-18.551 26.589-31.082 43.129-40.813 53.868-89.158 107.802-144.658 158.053-157.070 142.212-338.687 226.882-543.172 226.882-204.124 0-380.728-84.345-529.996-226.059-52.738-50.069-98.167-103.818-136.091-157.499-12.176-17.235-22.108-32.294-29.778-44.581 7.325-10.903 16.679-24.103 28.057-39.125zM6.018 452.628c8.96 16.808 26.011 44.883 51.173 80.498 41.596 58.879 91.304 117.69 149.221 172.677 166.892 158.446 367.377 254.197 600.5 254.197 232.763 0 437.45-95.426 611.9-253.374 60.531-54.806 113.083-113.432 157.55-172.123 26.887-35.488 45.296-63.441 55.047-80.132 9.583-16.403 9.296-36.764-0.746-52.891-9.692-15.564-27.952-41.494-54.661-74.352-44.097-54.247-96.366-108.41-156.748-159.011-173.541-145.431-378.3-233.142-612.342-233.142-234.389 0-434.95 88.006-600.969 233.927-57.788 50.793-107.232 105.156-148.471 159.61-24.994 33.003-41.904 59.072-50.808 74.773-8.65 15.252-8.893 33.869-0.646 49.342zM775.168 790.016c-111.977 0-202.752-90.775-202.752-202.752 0-28.277 22.923-51.2 51.2-51.2s51.2 22.923 51.2 51.2c0 55.423 44.929 100.352 100.352 100.352 28.277 0 51.2 22.923 51.2 51.2s-22.923 51.2-51.2 51.2z" />
<glyph unicode="&#xe930;" d="M39.882 424.286c18.335-238.393 217.122-422.478 456.219-422.478s437.884 184.085 456.219 422.478h-912.438z" />
<glyph unicode="&#xe931;" glyph-name="icon-print" horiz-adv-x="1088" d="M266.88 718.72v145.28c0 17.673 14.327 32 32 32h490.24c17.673 0 32-14.327 32-32v-145.28c0-17.673 14.327-32 32-32s32 14.327 32 32v145.28c0 53.019-42.981 96-96 96h-490.24c-53.019 0-96-42.981-96-96v-145.28c0-17.673 14.327-32 32-32s32 14.327 32 32zM234.88 208.64h-138.88c-17.673 0-32 14.327-32 32v414.080c0 17.673 14.327 32 32 32h896c17.673 0 32-14.327 32-32v-414.72c0-17.673-14.327-32-32-32h-138.88c-17.673 0-32-14.327-32-32s14.327-32 32-32h138.88c53.019 0 96 42.981 96 96v414.72c0 53.019-42.981 96-96 96h-896c-53.019 0-96-42.981-96-96v-414.080c0-53.019 42.981-96 96-96h138.88c17.673 0 32 14.327 32 32s-14.327 32-32 32zM821.12 416.64v-326.4c0-17.673-14.327-32-32-32h-490.24c-17.673 0-32 14.327-32 32v326.4c0 17.673-14.327 32-32 32s-32-14.327-32-32v-326.4c0-53.019 42.981-96 96-96h490.24c53.019 0 96 42.981 96 96v326.4c0 17.673-14.327 32-32 32s-32-14.327-32-32zM234.88 384.64h618.24c17.673 0 32 14.327 32 32s-14.327 32-32 32h-618.24c-17.673 0-32-14.327-32-32s14.327-32 32-32zM373.76 256h340.48c17.673 0 32 14.327 32 32s-14.327 32-32 32h-340.48c-17.673 0-32-14.327-32-32s14.327-32 32-32zM373.76 133.76h340.48c17.673 0 32 14.327 32 32s-14.327 32-32 32h-340.48c-17.673 0-32-14.327-32-32s14.327-32 32-32z" />
<glyph unicode="&#xe932;" glyph-name="icon-product" horiz-adv-x="1317" d="M1190.034 646.949v-530.286c0-20.198-16.374-36.571-36.571-36.571h-918.674c-20.198 0-36.571 16.374-36.571 36.571v528.091c0 20.198-16.374 36.571-36.571 36.571s-36.571-16.374-36.571-36.571v-528.091c0-60.594 49.121-109.714 109.714-109.714h918.674c60.594 0 109.714 49.121 109.714 109.714v530.286c0 20.198-16.374 36.571-36.571 36.571s-36.571-16.374-36.571-36.571zM768 633.783v-156.526c0-20.198-16.374-36.571-36.571-36.571h-83.383c-20.198 0-36.571 16.374-36.571 36.571v156.526c0 20.198-16.374 36.571-36.571 36.571s-36.571-16.374-36.571-36.571v-156.526c0-60.594 49.121-109.714 109.714-109.714h83.383c60.594 0 109.714 49.121 109.714 109.714v156.526c0 20.198-16.374 36.571-36.571 36.571s-36.571-16.374-36.571-36.571zM1239.040 725.211l0.010 0.855 2.916 124.219c0 20.198-16.374 36.571-36.571 36.571h-1026.926c-20.198 0-36.571-16.374-36.571-36.571v-125.074c0-20.198 16.374-36.571 36.571-36.571h1024c20.198 0 36.571 16.374 36.571 36.571zM1202.469 615.497h-1024c-60.594 0-109.714 49.121-109.714 109.714v125.074c0 60.594 49.121 109.714 109.714 109.714h1026.926c60.594 0 109.714-49.121 109.704-110.57l-2.917-124.689c-0.253-60.377-49.276-109.245-109.713-109.245z" />
<glyph unicode="&#xe933;" glyph-name="icon-cross" d="M915.257 940.743l-896-896c-24.994-24.994-24.994-65.516 0-90.51s65.516-24.994 90.51 0l896 896c24.994 24.994 24.994 65.516 0 90.51s-65.516 24.994-90.51 0zM19.257 850.233l896-896c24.994-24.994 65.516-24.994 90.51 0s24.994 65.516 0 90.51l-896 896c-24.994 24.994-65.516 24.994-90.51 0s-24.994-65.516 0-90.51z" />
<glyph unicode="&#xe934;" glyph-name="icon-setting" d="M613.839 475.793c-1.012 65.835-54.764 118.356-120.604 117.843-49.029-0.013-93.17-29.705-111.664-75.112s-7.659-97.49 27.409-131.755c35.068-34.265 87.388-43.89 132.354-24.349s73.628 64.358 72.505 113.374zM670.717 476.881c1.648-71.922-40.533-137.879-106.71-166.637s-143.177-14.592-194.786 35.835c-51.609 50.427-67.554 127.078-40.337 193.903s92.18 110.523 164.121 110.541c96.876 0.757 176.225-76.775 177.712-173.642zM851.4 603.358c40.726-14.017 80.532-30.592 119.177-49.628l15.875-7.82v-133.818l-15.146-8.010c-38.578-20.403-78.357-38.44-119.117-54.014l-13.742-33.516c18.592-38.176 34.667-77.533 48.122-117.817l5.648-16.909-97.023-94.731-16.079 4.858c-41.759 12.617-82.716 27.737-122.65 45.277l-33.751-13.5c-14.369-39.901-31.311-78.833-50.72-116.55l-7.94-15.429h-137.253l-8.072 14.885c-20.428 37.67-38.479 76.576-54.048 116.491l-33.84 13.874c-38.987-18.351-79.074-34.28-120.031-47.695l-16.387-5.367-97.101 94.807 5.255 16.681c12.906 40.966 28.323 81.093 46.162 120.155l-13.683 33.373c-40.738 14.003-80.55 30.583-119.193 49.641l-15.863 7.823v132.684l15.164 8.006c38.584 20.371 78.354 38.401 119.095 53.994l13.746 33.527c-18.588 38.177-34.664 77.532-48.122 117.814l-5.65 16.91 96.998 94.706 16.053-4.816c41.922-12.577 83.039-27.686 123.124-45.241l33.84 13.874c14.363 39.965 31.328 78.951 50.787 116.708l7.944 15.414h136.708l8.062-14.93c20.414-37.806 38.447-76.845 53.997-116.889l33.771-13.509c39.051 18.269 79.222 34.052 120.274 47.251l16.166 5.198 97.223-93.396-5.304-16.834c-12.908-40.965-28.324-81.091-46.162-120.154l13.686-33.38zM767.471 139.534l28.098 6.877c-5.337 1.612-10.66 3.268-15.968 4.966l-12.13-11.843zM929.564 510.337c-35.247 16.57-71.468 30.998-108.465 43.201l-12.439 4.103-33.044 80.596 5.339 11.329c16.509 35.031 30.944 70.996 43.233 107.709l-47.027 45.176c-36.958-12.601-73.121-27.435-108.292-44.42l-11.292-5.453-80.201 32.080-4.406 11.771c-13.654 36.479-29.477 72.103-47.383 106.682h-67.744c-16.899-34.363-31.63-69.757-44.105-105.974l-4.192-12.171-80.133-32.855-11.164 5.041c-36.268 16.377-73.454 30.627-111.37 42.679l-47.253-46.136c12.789-35.952 27.81-71.076 44.978-105.167l5.833-11.584-32.984-80.449-11.719-4.331c-37.169-13.736-73.512-29.602-108.847-47.516v-62.674c35.236-16.581 71.454-31.004 108.452-43.188l12.449-4.1 33.048-80.604-5.339-11.329c-16.533-35.078-30.985-71.093-43.284-107.859l47.154-46.040c36.901 12.799 73.018 27.771 108.159 44.839l11.445 5.559 80.13-32.853 4.364-11.602c13.656-36.304 29.473-71.753 47.364-106.157h68.337c16.886 34.377 31.622 69.775 44.121 105.991l4.244 12.299 80.222 32.089 11.041-4.998c36.087-16.336 73.083-30.574 110.803-42.642l47.227 46.112c-12.787 35.952-27.808 71.075-44.978 105.164l-5.835 11.585 32.989 80.461 11.733 4.327c37.172 13.707 73.509 29.567 108.828 47.496v63.815z" />
<glyph unicode="&#xe935;" glyph-name="icon-statistic" horiz-adv-x="1195" d="M1017.173 481.564v-390.258c0-30.162-24.451-54.613-54.613-54.613h-746.382c-21.093 0.048-40.329 12.325-49.285 31.508-7.976 17.081-28.288 24.463-45.369 16.487s-24.463-28.288-16.487-45.369c20.152-43.16 63.432-70.785 111.065-70.892h746.459c67.865 0 122.88 55.015 122.88 122.88v390.258c0 18.851-15.282 34.133-34.133 34.133s-34.133-15.282-34.133-34.133zM162.133 433.778v403.342c-0.001 30.027 24.238 54.422 54.263 54.614l746.163-0.001c24.933-0.048 46.708-17.064 52.797-41.31 4.592-18.283 23.136-29.383 41.42-24.791s29.383 23.136 24.791 41.42c-13.701 54.553-62.694 92.839-118.942 92.948h-746.448c-67.776-0.434-122.312-55.322-122.311-122.881v-403.342c0-18.851 15.282-34.133 34.133-34.133s34.133 15.282 34.133 34.133zM828.576 390.229l216.747 216.178c8.342 8.32 8.36 21.828 0.040 30.17s-21.828 8.36-30.17 0.040l-216.747-216.178c-8.342-8.32-8.36-21.828-0.040-30.17s21.828-8.36 30.17-0.040zM474.436 523.465l201.387-146.204c9.534-6.922 22.875-4.804 29.797 4.73s4.804 22.875-4.73 29.797l-201.387 146.204c-9.534 6.922-22.875 4.804-29.797-4.73s-4.804-22.875 4.73-29.797zM163.932 278.553l225.28 236.658c8.124 8.534 7.791 22.037-0.743 30.161s-22.037 7.791-30.161-0.743l-225.28-236.658c-8.124-8.534-7.791-22.037 0.743-30.161s22.037-7.791 30.161 0.743zM425.529 487.538c-53.569 0-96.996 43.426-96.996 96.996s43.426 96.996 96.996 96.996c53.569 0 96.996-43.426 96.996-96.996s-43.426-96.996-96.996-96.996zM425.529 530.204c30.005 0 54.329 24.324 54.329 54.329s-24.324 54.329-54.329 54.329c-30.005 0-54.329-24.324-54.329-54.329s24.324-54.329 54.329-54.329zM96.711 141.653c-53.569 0-96.996 43.426-96.996 96.996s43.426 96.996 96.996 96.996c53.569 0 96.996-43.426 96.996-96.996s-43.426-96.996-96.996-96.996zM96.711 184.32c30.005 0 54.329 24.324 54.329 54.329s-24.324 54.329-54.329 54.329c-30.005 0-54.329-24.324-54.329-54.329s24.324-54.329 54.329-54.329zM754.916 261.689c-53.569 0-96.996 43.426-96.996 96.996s43.426 96.996 96.996 96.996c53.569 0 96.996-43.426 96.996-96.996s-43.426-96.996-96.996-96.996zM754.916 304.356c30.005 0 54.329 24.324 54.329 54.329s-24.324 54.329-54.329 54.329c-30.005 0-54.329-24.324-54.329-54.329s24.324-54.329 54.329-54.329zM1083.733 577.991c-53.569 0-96.996 43.426-96.996 96.996s43.426 96.996 96.996 96.996c53.569 0 96.996-43.426 96.996-96.996s-43.426-96.996-96.996-96.996zM1083.733 620.658c30.005 0 54.329 24.324 54.329 54.329s-24.324 54.329-54.329 54.329c-30.005 0-54.329-24.324-54.329-54.329s24.324-54.329 54.329-54.329zM404.196 411.591v-409.031c0-11.782 9.551-21.333 21.333-21.333s21.333 9.551 21.333 21.333v409.031c0 11.782-9.551 21.333-21.333 21.333s-21.333-9.551-21.333-21.333zM733.582 188.587v-186.027c0-11.782 9.551-21.333 21.333-21.333s21.333 9.551 21.333 21.333v186.027c0 11.782-9.551 21.333-21.333 21.333s-21.333-9.551-21.333-21.333z" />
<glyph unicode="&#xe936;" horiz-adv-x="1195" d="M951.898-52.872c-123.431 0-223.492 100.061-223.492 223.492s100.061 223.492 223.492 223.492c123.431 0 223.492-100.061 223.492-223.492s-100.061-223.492-223.492-223.492zM951.898 4.016c92.012 0 166.603 74.591 166.603 166.603s-74.591 166.603-166.603 166.603c-92.012 0-166.603-74.591-166.603-166.603s74.591-166.603 166.603-166.603z" />
<glyph unicode="&#xe937;" glyph-name="icon-phone" horiz-adv-x="768" d="M94.72 743.68h578.56c17.673 0 32 14.327 32 32s-14.327 32-32 32h-578.56c-17.673 0-32-14.327-32-32s14.327-32 32-32zM94.72 173.44h578.56c17.673 0 32 14.327 32 32s-14.327 32-32 32h-578.56c-17.673 0-32-14.327-32-32s14.327-32 32-32zM350.080 72.96h67.84c17.673 0 32 14.327 32 32s-14.327 32-32 32h-67.84c-17.673 0-32-14.327-32-32s14.327-32 32-32zM158.72 864c-17.673 0-32-14.327-32-32v-768c0-17.673 14.327-32 32-32h449.92c17.673 0 32 14.327 32 32v768c0 17.673-14.327 32-32 32h-449.92zM158.72 928h449.92c53.019 0 96-42.981 96-96v-768c0-53.019-42.981-96-96-96h-449.92c-53.019 0-96 42.981-96 96v768c0 53.019 42.981 96 96 96z" />
<glyph unicode="&#xe938;" d="M441.106 344.349l-143.794 151.981c-13.718 14.499-36.593 15.132-51.092 1.414s-15.132-36.593-1.414-51.092l169.261-178.899c13.961-14.756 37.338-15.111 51.74-0.785l337.92 336.113c14.152 14.076 14.213 36.959 0.137 51.111s-36.959 14.213-51.111 0.137l-311.647-309.981z" />
<glyph unicode="&#xe939;" glyph-name="icon-hourglass" horiz-adv-x="878" d="M754.472 886.418c-0.159 10.078-8.285 18.204-17.924 18.359l-662.974 0.003c-10.071-0.159-18.197-8.284-18.355-18.362-0.079-4.947 1.81-9.722 5.253-13.276s8.156-5.594 12.671-5.668l662.974-0.003c4.947 0.078 9.66 2.118 13.103 5.672s5.332 8.329 5.253 13.276zM809.322 887.289c0.312-19.49-7.135-38.311-20.702-52.316s-32.143-22.046-52.071-22.356l-663.838 0.003c-19.496 0.307-38.072 8.348-51.639 22.353s-21.014 32.826-20.702 52.316c0.625 39.691 32.65 71.717 72.774 72.345l663.838-0.003c39.691-0.625 71.717-32.65 72.342-72.342zM754.472 22.601v0.878c0.079 4.947-1.81 9.722-5.253 13.276s-8.156 5.594-12.671 5.668l-662.974 0.003c-4.947-0.078-9.66-2.118-13.103-5.672s-5.332-8.329-5.253-14.153c-0.079-4.947 1.81-9.722 5.253-13.276s8.156-5.594 12.671-5.668l662.974-0.003c4.947 0.078 9.66 2.118 13.103 5.672s5.332 8.329 5.253 13.276zM788.62-28.844c-13.567-14.005-32.143-22.046-52.071-22.356l-663.838 0.003c-19.496 0.307-38.072 8.348-51.639 22.353s-21.014 32.826-20.702 51.445c-0.312 19.496 7.135 38.318 20.702 52.323s32.143 22.046 52.071 22.356l663.838-0.003c19.496-0.307 38.072-8.348 51.639-22.353 13.465-13.9 20.902-32.544 20.708-51.884 0.194-19.34-7.243-37.984-20.708-51.884zM60.395 68.156c0.937-15.119 13.953-26.617 29.072-25.68s26.617 13.953 25.68 29.072c-9.555 154.239 79.352 297.69 221.732 357.764 22.355 9.432 22.355 41.11 0 50.542-142.38 60.074-231.287 203.525-221.732 357.764 0.937 15.119-10.561 28.135-25.68 29.072s-28.135-10.561-29.072-25.68c-9.824-158.575 70.794-307.241 204.933-386.427-134.139-79.187-214.756-227.852-204.933-386.427zM751.493 840.974c-0.917 15.121-13.917 26.635-29.038 25.719s-26.635-13.917-25.719-29.038c9.348-154.208-79.503-297.569-221.763-357.815-22.326-9.455-22.305-41.103 0.033-50.528 142.38-60.074 231.287-203.525 221.732-357.764-0.937-15.119 10.561-28.135 25.68-29.072s28.135 10.561 29.072 25.68c9.825 158.599-70.819 307.286-204.995 386.464 134.022 79.282 214.607 227.837 204.997 386.355zM211.383 132.754c7.789 100.628 95.347 176.097 196.023 168.96 100.272 7.138 187.503-68.005 195.291-168.229l-391.314-0.731zM560.274 621.349c0-60.709-68.754-110.446-152.869-110.446s-152.869 49.006-152.869 110.446h305.737z" />
<glyph unicode="&#xe93a;" glyph-name="icon-check" horiz-adv-x="1536" d="M109.814 531.095c-24.967 25.020-65.49 25.063-90.51 0.095s-25.063-65.49-0.095-90.51l485.376-486.4c24.976-25.028 65.515-25.061 90.531-0.074l897.024 896c25.008 24.979 25.031 65.502 0.052 90.51s-65.502 25.031-90.51 0.052l-851.721-850.749-440.147 441.076z" />
<glyph unicode="&#xe93b;" glyph-name="icon-arrow-down" horiz-adv-x="943" d="M446.099 934.451v-932.752l-403.517 380.401c-4.538 4.295-10.68 6.936-17.438 6.936-14.022 0-25.389-11.367-25.389-25.389 0-7.263 3.050-13.814 7.939-18.441l0.012-0.011 405.545-386.078c14.503-13.752 34.145-22.209 55.762-22.209s41.26 8.457 55.799 22.243l-0.036-0.034 407.978 386.484c4.9 4.639 7.95 11.189 7.95 18.452 0 14.022-11.367 25.389-25.389 25.389-6.759 0-12.901-2.641-17.45-6.947l0.012 0.011-403.517-382.023v933.969c-3.58 10.071-13.028 17.152-24.13 17.152s-20.55-7.081-24.074-16.973l-0.055-0.179z" />
<glyph unicode="&#xe93c;" glyph-name="icon-arrow-right" horiz-adv-x="1112" d="M27.747 420.473h1012.989l-413.123-438.228c-4.665-4.928-7.533-11.598-7.533-18.938 0-15.228 12.345-27.573 27.573-27.573 7.888 0 15.002 3.312 20.028 8.621l0.012 0.013 419.289 440.43c14.935 15.75 24.119 37.082 24.119 60.559s-9.185 44.809-24.156 60.599l0.037-0.039-419.289 445.275c-5.038 5.322-12.152 8.634-20.040 8.634-15.228 0-27.573-12.345-27.573-27.573 0-7.34 2.868-14.010 7.545-18.951l-0.012 0.013 414.885-437.788h-1014.751c-13.75-1.793-24.258-13.433-24.258-27.527s10.509-25.734 24.118-27.512l0.14-0.015z" />
<glyph unicode="&#xe93d;" glyph-name="icon-arrow-left" horiz-adv-x="1112" d="M1084.779 475.527h-1012.989l412.683 438.228c4.574 4.887 7.382 11.474 7.382 18.718 0 15.145-12.277 27.422-27.422 27.422-7.901 0-15.021-3.341-20.025-8.688l-0.014-0.015-419.289-440.43c-15.702-15.899-25.401-37.76-25.401-61.885 0-23.904 9.522-45.584 24.979-61.455l-0.019 0.019 419.73-443.073c5.038-5.322 12.152-8.634 20.040-8.634 15.228 0 27.573 12.345 27.573 27.573 0 7.34-2.868 14.010-7.545 18.951l0.012-0.013-414.885 438.228h1012.989c15.203 0 27.527 12.324 27.527 27.527s-12.324 27.527-27.527 27.527v0z" />
<glyph unicode="&#xe93e;" glyph-name="icon-edit" horiz-adv-x="1025" d="M126.873 306.314v0l-23.185-23.185c-4.181-4.269-7.474-9.427-9.566-15.161l-0.094-0.295-91.452-281.439c-2-4.343-3.166-9.423-3.166-14.776 0-19.918 16.147-36.065 36.065-36.065 4.129 0 8.097 0.694 11.792 1.972l-0.253-0.076 285.303 90.164c4.729 2.168 8.776 4.979 12.243 8.379l669.135 669.779c6.379 6.689 10.304 15.766 10.304 25.761s-3.925 19.072-10.318 25.776l0.014-0.015-193.208 193.208c-6.689 6.379-15.766 10.304-25.761 10.304s-19.072-3.925-25.776-10.318l0.015 0.014zM201.58 279.265l367.738 368.382 142.974-142.974-368.382-367.738zM763.17 555.552l-142.974 142.974 42.506 42.506 142.33-142.974zM796.015 873.701l142.33-142.33-82.435-82.435-142.974 142.33zM90.164 26.808l64.403 199.004 135.245-135.889z" />
<glyph unicode="&#xe93f;" glyph-name="icon-arrow-up" horiz-adv-x="943" d="M496.792-38.856v932.752l403.517-379.995c4.538-4.295 10.68-6.936 17.438-6.936 14.022 0 25.389 11.367 25.389 25.389 0 7.263-3.050 13.814-7.939 18.441l-0.012 0.011-407.978 386.078c-14.503 13.752-34.145 22.209-55.762 22.209s-41.26-8.457-55.799-22.243l0.036 0.034-407.572-386.078c-4.9-4.639-7.95-11.189-7.95-18.452 0-14.022 11.367-25.389 25.389-25.389 6.759 0 12.901 2.641 17.45 6.947l-0.012-0.011 403.111 382.023v-932.752c0-13.999 11.348-25.347 25.347-25.347s25.347 11.348 25.347 25.347v0z" />
<glyph unicode="&#xe940;" glyph-name="icon-play-button" d="M808.697 442.749l-445.046-284.882c-2.626-1.313-5.251-2.626-7.877-2.626l-6.564 1.313c-3.938 2.626-7.877 6.564-7.877 11.815v568.451c0 5.251 2.626 9.19 7.877 11.815s10.503 1.313 14.441-1.313l445.046-283.569c2.626-2.626 5.251-6.564 5.251-10.503 0-5.251-2.626-7.877-5.251-10.503zM506.749 960c-279.631 0-506.749-227.118-506.749-506.749 0-280.944 227.118-508.062 506.749-508.062s506.749 227.118 506.749 506.749c1.313 280.944-225.805 508.062-506.749 508.062z" />
<glyph unicode="&#xe941;" glyph-name="icon-point-down" horiz-adv-x="1645" d="M821.682-64v0c-23.863 1.295-44.728 13.104-58.196 30.837l-0.141 0.193-744.727 868.848c-5.253 10.228-8.332 22.316-8.332 35.124 0 43.187 35.010 78.196 78.196 78.196 18.194 0 34.936-6.213 48.221-16.634l-0.17 0.128 685.149-800.582 686.39 800.582c13.152 25.749 39.485 43.073 69.864 43.073 43.187 0 78.196-35.010 78.196-78.196 0-24.993-11.725-47.248-29.975-61.563l-0.17-0.128-744.727-868.848c-13.864-18.228-35.244-30.122-59.436-31.026l-0.142-0.004z" />
<glyph unicode="&#xe942;" glyph-name="icon-point-right" horiz-adv-x="638" d="M48.688-64c-26.574 0.411-47.958 22.050-47.958 48.683 0 14.418 6.267 27.373 16.226 36.288l0.047 0.041 497.703 426.602-497.703 427.375c-6.408 8.166-10.277 18.59-10.277 29.919 0 26.89 21.798 48.688 48.688 48.688 7.975 0 15.501-1.917 22.144-5.316l-0.275 0.128 540.981-463.698c10.498-8.849 17.121-22.006 17.121-36.709s-6.623-27.861-17.049-36.65l-0.072-0.059-540.981-463.698c-7.674-6.664-17.58-10.942-28.463-11.586l-0.131-0.006z" />
<glyph unicode="&#xe943;" glyph-name="icon-point-left" horiz-adv-x="638" d="M588.897-64c-0.129-0.001-0.282-0.002-0.434-0.002-11.97 0-22.915 4.389-31.313 11.646l0.061-0.052-540.981 463.698c-10.498 8.849-17.121 22.006-17.121 36.709s6.623 27.861 17.049 36.65l0.072 0.059 540.981 463.698c8.998 11.067 22.612 18.081 37.865 18.081 26.89 0 48.688-21.798 48.688-48.688 0-18.392-10.198-34.402-25.248-42.685l-0.252-0.127-495.384-426.602 495.384-427.375c10.785-8.854 17.612-22.188 17.612-37.116 0-26.463-21.452-47.915-47.915-47.915-0.486 0-0.971 0.007-1.453 0.022l0.071-0.002z" />
<glyph unicode="&#xe944;" glyph-name="icon-point-up" horiz-adv-x="1645" d="M1567.651-64c-24.38 0.717-45.828 12.667-59.435 30.83l-0.144 0.2-685.149 795.617-686.39-795.617c-13.766-12.34-32.052-19.885-52.101-19.885-43.187 0-78.196 35.010-78.196 78.196 0 15.684 4.617 30.289 12.567 42.531l-0.185-0.304 744.727 868.848c14.221 14.604 34.074 23.663 56.043 23.663 1.243 0 2.48-0.029 3.709-0.086l-0.174 0.006c23.321-0.32 44.132-10.8 58.251-27.204l0.086-0.103 744.727-868.848c9.383-12.744 15.016-28.751 15.016-46.075 0-41.483-32.301-75.421-73.124-78.034l-0.229-0.012z" />
<glyph unicode="&#xe945;" glyph-name="icon-edit-outline" d="M849.92 461.653c-13.653 0-23.893-10.24-23.893-23.893v-413.013h-750.933v829.44h481.28c13.653 0 23.893 10.24 23.893 23.893s-10.24 23.893-23.893 23.893h-505.173c-13.653 0-23.893-10.24-23.893-23.893v-877.227c0-13.653 10.24-23.893 23.893-23.893h798.72c13.653 0 23.893 10.24 23.893 23.893v436.907c0 13.653-10.24 23.893-23.893 23.893zM948.907 864.427c-40.96 40.96-95.573 61.44-143.36 51.2-3.413 0-10.24-3.413-13.653-6.827l-68.267-64.853c0 0 0 0 0 0s0 0 0 0l-426.667-413.013c-3.413-3.413-3.413-6.827-6.827-10.24l-71.68-225.28c-3.413-6.827 0-17.067 6.827-23.893 3.413-3.413 10.24-6.827 17.067-6.827 3.413 0 3.413 0 6.827 0l235.52 68.267c3.413 0 6.827 3.413 10.24 6.827l494.933 481.28c3.413 3.413 6.827 6.827 6.827 13.653 6.827 40.96-10.24 88.747-47.787 129.707zM358.4 424.107l385.707 372.053 129.707-122.88-389.12-368.64-126.293 119.467zM778.24 830.293l40.96 40.96c30.72 3.413 68.267-10.24 95.573-40.96 27.307-27.307 37.547-58.027 34.133-85.333l-40.96-37.547-129.707 122.88zM443.733 273.92l-92.16-34.133-61.44 58.027 34.133 88.747 119.467-112.64z" />
<glyph unicode="&#xe946;" glyph-name="icon-share" horiz-adv-x="726" d="M593.541 201.481c-34.835-0.874-66.166-15.191-89.136-37.936l0.011 0.010-254.104 209.73c-1.31 0.874-2.811 1.641-4.401 2.227l-0.15 0.048c12.491 19.508 19.91 43.305 19.91 68.836s-7.419 49.328-20.22 69.353l0.31-0.518 4.172 2.276 251.070 207.076c1.703 2.826 2.801 6.193 3.031 9.797l0.003 0.064c23.362-21.555 54.7-34.773 89.125-34.773 72.682 0 131.603 58.921 131.603 131.603s-58.921 131.603-131.603 131.603c-72.682 0-131.603-58.921-131.603-131.603 0-0.175 0-0.35 0.001-0.525v0.027c0.232-23.025 6.393-44.562 17.025-63.22l-0.337 0.643c-2.762-0.874-5.159-2.168-7.252-3.828l0.046 0.035-251.449-208.213c-1.459-1.425-2.718-3.046-3.736-4.823l-0.057-0.107c-22.409 19.288-51.696 31.144-83.746 31.478l-0.071 0.001c-73.311 0-132.741-59.43-132.741-132.741s59.43-132.741 132.741-132.741v0c31.892 0.201 61.042 11.781 83.63 30.879l-0.193-0.159c1.182-1.889 2.564-3.512 4.148-4.91l0.024-0.021 254.104-209.73 3.413-1.896c-9.923-17.853-15.811-39.136-15.929-61.784v-0.036c1.069-72.071 59.744-130.085 131.969-130.085 72.892 0 131.982 59.090 131.982 131.982 0 72.754-58.867 131.758-131.568 131.982h-0.021z" />
<glyph unicode="&#xe947;" horiz-adv-x="870" d="M629.012-25.871c-1.945-2.347-4.363-4.199-7.056-5.464-2.889-1.334-5.876-1.966-8.871-1.945h-510.685c-39.588 0-71.68 32.092-71.68 71.68v819.2c0 39.588 32.092 71.68 71.68 71.68h665.6c39.588 0 71.68-32.092 71.68-71.68v-618.229c1.068-5.231-0.057-11.055-4.49-16.547l-206.178-248.695zM798.72 243.007v614.593c0 16.966-13.754 30.72-30.72 30.72h-665.6c-16.966 0-30.72-13.754-30.72-30.72v-819.2c0-16.966 13.754-30.72 30.72-30.72h501.222l195.098 235.327z" />
<glyph unicode="&#xe948;" horiz-adv-x="870" d="M820.718 264.622h-185.511c-25.449 0-46.080-20.631-46.080-46.080v-222.46h40.96v222.46c0 2.828 2.292 5.12 5.12 5.12h185.511v40.96z" />
<glyph unicode="&#xe949;" horiz-adv-x="870" d="M281.6 714.24h204.8c11.311 0 20.48 9.169 20.48 20.48s-9.169 20.48-20.48 20.48h-204.8c-11.311 0-20.48-9.169-20.48-20.48s9.169-20.48 20.48-20.48z" />
<glyph unicode="&#xe94a;" horiz-adv-x="870" d="M256 529.92h358.4c11.311 0 20.48 9.169 20.48 20.48s-9.169 20.48-20.48 20.48h-358.4c-11.311 0-20.48-9.169-20.48-20.48s9.169-20.48 20.48-20.48z" />
<glyph unicode="&#xe94b;" horiz-adv-x="870" d="M256 376.32h358.4c11.311 0 20.48 9.169 20.48 20.48s-9.169 20.48-20.48 20.48h-358.4c-11.311 0-20.48-9.169-20.48-20.48s9.169-20.48 20.48-20.48z" />
<glyph unicode="&#xe94c;" horiz-adv-x="1265" d="M663.345 899.765h435.742c70.030 0 126.8-56.77 126.8-126.8 0-2.39-0.068-4.779-0.203-7.165l-6.229-110.062c-0.843-14.887-9.238-28.309-22.255-35.581v0 0c-12.87-7.19-20.742-20.876-20.485-35.616l8.56-492.378c0.578-33.262-25.917-60.695-59.179-61.273-0.349-0.006-0.698-0.009-1.047-0.009h-462.461l0.757 868.884z" />
<glyph unicode="&#xe94d;" horiz-adv-x="1265" d="M1157.442 607.456l3.406-519.968c-0.001-28.336-23.099-51.435-51.593-51.435h-903.322c-28.494 0-51.593 23.099-51.593 51.593l-3.785 517.874c-0.097 13.306-10.963 24.015-24.27 23.917s-24.015-10.963-23.917-24.27l3.784-517.698c-0.001-54.931 44.673-99.605 99.78-99.605h903.322c55.107 0 99.781 44.673 99.781 99.781l-3.406 520.126c-0.087 13.307-10.945 24.023-24.251 23.936s-24.023-10.945-23.936-24.251z" />
<glyph unicode="&#xe94e;" horiz-adv-x="1265" d="M743.813 607.614v-129.424c0-7.594-6.156-13.749-13.749-13.749h-151.374c-7.594 0-13.749 6.156-13.749 13.749v129.424c0 13.307-10.787 24.094-24.094 24.094s-24.094-10.787-24.094-24.094v-129.424c0-34.207 27.73-61.938 61.938-61.938h151.374c34.207 0 61.938 27.73 61.938 61.938v129.424c0 13.307-10.787 24.094-24.094 24.094s-24.094-10.787-24.094-24.094z" />
<glyph unicode="&#xe94f;" horiz-adv-x="1265" d="M1206.259 688.599l3.027 116.558c0 28.494-23.099 51.593-51.593 51.593l-999.509 0.010c-28.535-0.82-51.475-23.759-52.3-52.463l-4.147-115.698c0-28.494 23.099-51.593 51.593-51.593h1001.336c28.494 0 51.593 23.099 51.593 51.593zM1154.666 588.818h-1001.336c-55.107 0-99.781 44.673-99.766 100.641l4.157 116.39c1.553 54.064 45.016 97.526 99.771 99.089h1000.201c55.107 0 99.781-44.673 99.773-100.407l-3.020-116.266c-0.18-54.954-44.784-99.447-99.78-99.447z" />
<glyph unicode="&#xe950;" d="M495.832-31.663c-273.84 0-495.832 221.991-495.832 495.832s221.991 495.832 495.832 495.832c273.84 0 495.832-221.991 495.832-495.832s-221.991-495.832-495.832-495.832zM495.832 43.789c232.169 0 420.379 188.21 420.379 420.379s-188.21 420.379-420.379 420.379c-232.169 0-420.379-188.21-420.379-420.379s188.21-420.379 420.379-420.379z" />
<glyph unicode="&#xe951;" d="M392.279 528.241c-14.816 12.849-37.006 12.202-51.050-1.487l-170.846-166.535c-14.92-14.544-15.225-38.429-0.682-53.349s38.429-15.225 53.349-0.682l146.005 142.32 111.762-96.919c14.401-12.489 35.856-12.272 50.003 0.504l289.415 261.389c15.463 13.965 16.676 37.821 2.711 53.284s-37.821 16.676-53.284 2.711l-264.636-239.011-112.746 97.772z" />
<glyph unicode="&#xe952;" d="M739.606 458.588c-1.978-20.742 13.232-39.16 33.974-41.138s39.16 13.232 41.138 33.974l17.785 186.476c2.181 22.868-16.409 42.361-39.355 41.265l-191.865-9.162c-20.812-0.994-36.878-18.671-35.884-39.483s18.671-36.878 39.483-35.884l148.376 7.085-13.651-143.134z" />
<glyph unicode="&#xe953;" horiz-adv-x="1195" d="M1065.528 183.467h-216.177c-7.855 0-14.222-6.368-14.222-14.222s6.368-14.222 14.222-14.222h216.177c7.855 0 14.222 6.368 14.222 14.222s-6.368 14.222-14.222 14.222z" />
<glyph unicode="&#xe954;" horiz-adv-x="1195" d="M969.958 66.844v210.49c0 7.855-6.368 14.222-14.222 14.222s-14.222-6.368-14.222-14.222v-210.49c0-7.855 6.368-14.222 14.222-14.222s14.222 6.368 14.222 14.222z" />
<glyph unicode="&#xe955;" horiz-adv-x="1195" d="M534.512 720.985v169.935h-118.004c-17.81-0.183-34.321-9.356-43.886-24.381l-48.762-73.143c-3.010-4.447-8.040-7.099-13.41-7.070h-188.709c-28.523 0.011-51.871-22.688-52.663-51.2v-557.349c0-29.085 23.578-52.663 52.663-52.663h412.77v104.35c-135.73 0-245.76 110.031-245.76 245.76s110.030 245.76 245.76 245.76v0z" />
<glyph unicode="&#xe956;" horiz-adv-x="1195" d="M312.357 816.198c-0.412 0.021-0.821 0.020-1.228 0h1.228zM766.074 816.234h182.67c44.794 0 81.107-36.313 81.107-81.107v-368.396c0-15.709-12.735-28.444-28.444-28.444s-28.444 12.735-28.444 28.444v368.396c0 13.375-10.843 24.218-24.218 24.218h-189.047c-14.861-0.078-28.782 7.262-37.226 19.736l-49.129 73.707c-4.36 6.888-11.921 11.088-19.852 11.15l-235.472 0.001c-8.191-0.084-15.784-4.302-20.51-11.716l-48.851-73.275c-8.721-12.924-23.566-20.346-37.719-19.604h-189.196c-13.375 0-24.218-10.843-24.218-24.218v-557.349c0-13.375 10.843-24.218 24.218-24.218h640.731c15.709 0 28.444-12.735 28.444-28.444s-12.735-28.444-28.444-28.444h-640.731c-44.794 0-81.107 36.313-81.107 81.107v557.349c0 44.794 36.313 81.107 81.107 81.107l183.378-0.034 44.725 67.077c14.73 23.141 40.159 37.268 67.881 37.551l235.984-0.001c27.493-0.213 52.994-14.38 67.333-37.046l45.031-67.547z" />
<glyph unicode="&#xe957;" horiz-adv-x="1195" d="M534.512 201.021c-151.439 0-274.204 122.766-274.204 274.204s122.766 274.204 274.204 274.204c151.439 0 274.204-122.766 274.204-274.204s-122.766-274.204-274.204-274.204zM534.512 257.91c120.020 0 217.316 97.295 217.316 217.316s-97.295 217.316-217.316 217.316c-120.020 0-217.316-97.295-217.316-217.316s97.295-217.316 217.316-217.316z" />
<glyph unicode="&#xe958;" horiz-adv-x="1195" d="M415.519 475.844c0.085 29.008 10.676 57.020 30.427 78.984 22.585 25.115 54.276 39.090 87.477 39.318 10.996 0.075 19.85 9.051 19.774 20.047s-9.051 19.85-20.047 19.774c-44.298-0.303-86.67-18.988-116.815-52.511-26.358-29.311-40.525-66.781-40.639-105.494-0.032-10.997 8.856-19.937 19.853-19.969s19.937 8.856 19.969 19.853z" />
<glyph unicode="&#xe959;" d="M512-64c-282.77 0-512 229.23-512 512s229.23 512 512 512c282.77 0 512-229.23 512-512s-229.23-512-512-512zM512-3.765c249.503 0 451.765 202.262 451.765 451.765s-202.262 451.765-451.765 451.765c-249.503 0-451.765-202.262-451.765-451.765s202.262-451.765 451.765-451.765z" />
<glyph unicode="&#xe95a;" horiz-adv-x="922" d="M848.736 160.47v526.57c0 70.958-49.403 127.785-107.746 127.785h-555.146c-58.343 0-107.746-56.827-107.746-127.785v-526.57c0-70.958 49.403-127.785 107.746-127.785h555.146c58.343 0 107.746 56.827 107.746 127.785zM899.936 160.47c0-97.766-70.608-178.985-158.946-178.985h-555.146c-88.337 0-158.946 81.219-158.946 178.985v526.57c0 97.766 70.608 178.985 158.946 178.985h555.146c88.337 0 158.946-81.219 158.946-178.985v-526.57z" />
<glyph unicode="&#xe95b;" horiz-adv-x="922" d="M53.554 569.409h819.704c14.138 0 25.6 11.462 25.6 25.6s-11.462 25.6-25.6 25.6h-819.704c-14.138 0-25.6-11.462-25.6-25.6s11.462-25.6 25.6-25.6z" />
<glyph unicode="&#xe95c;" horiz-adv-x="922" d="M54.389 385.039h819.704c10.604 0 19.2 8.596 19.2 19.2s-8.596 19.2-19.2 19.2h-819.704c-10.604 0-19.2-8.596-19.2-19.2s8.596-19.2 19.2-19.2z" />
<glyph unicode="&#xe95d;" horiz-adv-x="922" d="M53.554 213.438h819.704c10.604 0 19.2 8.596 19.2 19.2s-8.596 19.2-19.2 19.2h-819.704c-10.604 0-19.2-8.596-19.2-19.2s8.596-19.2 19.2-19.2z" />
<glyph unicode="&#xe95e;" horiz-adv-x="922" d="M244.193 595.009v-588.016c0-10.604 8.596-19.2 19.2-19.2s19.2 8.596 19.2 19.2v588.016c0 10.604-8.596 19.2-19.2 19.2s-19.2-8.596-19.2-19.2z" />
<glyph unicode="&#xe95f;" horiz-adv-x="922" d="M445.878 595.009v-588.016c0-10.604 8.596-19.2 19.2-19.2s19.2 8.596 19.2 19.2v588.016c0 10.604-8.596 19.2-19.2 19.2s-19.2-8.596-19.2-19.2z" />
<glyph unicode="&#xe960;" horiz-adv-x="922" d="M635.896 595.009v-588.016c0-10.604 8.596-19.2 19.2-19.2s19.2 8.596 19.2 19.2v588.016c0 10.604-8.596 19.2-19.2 19.2s-19.2-8.596-19.2-19.2z" />
<glyph unicode="&#xe961;" horiz-adv-x="922" d="M222.077 886.993v-93.227c0-17.271 12.615-31.291 28.163-31.291 15.521 0 28.163 14.019 28.163 31.291v93.227c0 17.302-12.641 31.383-28.163 31.383-15.548 0-28.163-14.081-28.163-31.383z" />
<glyph unicode="&#xe962;" horiz-adv-x="922" d="M250.239 937.575c26.618 0 47.363-23.114 47.363-50.583v-93.227c0-27.444-20.755-50.491-47.363-50.491-26.628 0-47.363 23.039-47.363 50.491v93.227c0 27.477 20.724 50.583 47.363 50.583zM250.239 899.175c-4.443 0-8.963-5.039-8.963-12.183v-93.227c0-7.093 4.497-12.091 8.963-12.091 4.451 0 8.963 5.010 8.963 12.091v93.227c0 7.131-4.534 12.183-8.963 12.183z" />
<glyph unicode="&#xe963;" horiz-adv-x="922" d="M436.628 886.993v-93.227c0-17.271 12.641-31.291 28.163-31.291 15.548 0 28.189 14.019 28.189 31.291v93.227c0 17.302-12.641 31.383-28.189 31.383-15.521 0-28.163-14.081-28.163-31.383z" />
<glyph unicode="&#xe964;" horiz-adv-x="922" d="M464.79 937.575c26.637 0 47.389-23.107 47.389-50.583v-93.227c0-27.451-20.762-50.491-47.389-50.491-26.608 0-47.363 23.047-47.363 50.491v93.227c0 27.469 20.745 50.583 47.363 50.583zM464.79 899.175c-4.429 0-8.963-5.052-8.963-12.183v-93.227c0-7.081 4.512-12.091 8.963-12.091 4.477 0 8.989 5.008 8.989 12.091v93.227c0 7.133-4.535 12.183-8.989 12.183z" />
<glyph unicode="&#xe965;" horiz-adv-x="922" d="M650.242 886.993v-93.227c0-17.271 12.641-31.291 28.163-31.291 15.548 0 28.189 14.019 28.189 31.291v93.227c0 17.302-12.641 31.383-28.189 31.383-15.521 0-28.163-14.081-28.163-31.383z" />
<glyph unicode="&#xe966;" horiz-adv-x="922" d="M678.405 937.575c26.637 0 47.389-23.107 47.389-50.583v-93.227c0-27.451-20.762-50.491-47.389-50.491-26.608 0-47.363 23.047-47.363 50.491v93.227c0 27.469 20.745 50.583 47.363 50.583zM678.405 899.175c-4.429 0-8.963-5.052-8.963-12.183v-93.227c0-7.081 4.512-12.091 8.963-12.091 4.477 0 8.989 5.008 8.989 12.091v93.227c0 7.133-4.535 12.183-8.989 12.183z" />
<glyph unicode="&#xe967;" glyph-name="icon-hamburger" horiz-adv-x="1609" d="M73.143 832h1462.857c30.297 0 54.857 24.56 54.857 54.857s-24.56 54.857-54.857 54.857h-1462.857c-30.297 0-54.857-24.56-54.857-54.857s24.56-54.857 54.857-54.857zM73.143 393.143h1097.143c30.297 0 54.857 24.56 54.857 54.857s-24.56 54.857-54.857 54.857h-1097.143c-30.297 0-54.857-24.56-54.857-54.857s24.56-54.857 54.857-54.857zM73.143-45.714h1462.857c30.297 0 54.857 24.56 54.857 54.857s-24.56 54.857-54.857 54.857h-1462.857c-30.297 0-54.857-24.56-54.857-54.857s24.56-54.857 54.857-54.857z" />
<glyph unicode="&#xe968;" glyph-name="icon-radio-selected" d="M512 704c-143.36 0-256-112.64-256-256s112.64-256 256-256c143.36 0 256 112.64 256 256s-112.64 256-256 256v0zM512 960c-281.6 0-512-230.4-512-512s230.4-512 512-512c281.6 0 512 230.4 512 512s-230.4 512-512 512v0zM512 38.4c-225.28 0-409.6 184.32-409.6 409.6s184.32 409.6 409.6 409.6c225.28 0 409.6-184.32 409.6-409.6s-184.32-409.6-409.6-409.6v0z" />
<glyph unicode="&#xe969;" horiz-adv-x="973" d="M460.8 340.217v-337.311h412.535c42.215-0.135 63.258 16.2 63.13 49.005s-0.128 178.487 0 437.049h-475.665v-148.743z" />
<glyph unicode="&#xe96a;" horiz-adv-x="973" d="M460.8 332.277v-355.316h-355.237c-36.351-0.142-54.472 17.065-54.362 51.621s0.11 188.015 0 460.378h409.6v-156.683z" />
<glyph unicode="&#xe96b;" horiz-adv-x="973" d="M914.981 486.085l-860.94-1.853 3.088-422.441c0-34.109 27.651-61.76 61.76-61.76h737.111c34.109 0 61.76 27.651 61.76 61.76l-2.779 424.294zM955.94 486.353l2.78-424.562c0-56.731-45.989-102.72-102.72-102.72h-737.111c-56.731 0-102.72 45.989-102.719 102.421l-3.088 422.441c-0.166 22.704 18.167 41.21 40.871 41.259l860.94 1.853c22.551 0.049 40.9-18.141 41.047-40.692z" />
<glyph unicode="&#xe96c;" horiz-adv-x="973" d="M44.459 336.274h877.269v25.6h-877.269z" />
<glyph unicode="&#xe96d;" horiz-adv-x="973" d="M44.459 149.76h877.269v25.6h-877.269z" />
<glyph unicode="&#xe96e;" glyph-name="icon-dash" horiz-adv-x="10240" d="M512-64h9216c282.77 0 512 229.23 512 512s-229.23 512-512 512h-9216c-282.77 0-512-229.23-512-512s229.23-512 512-512z" />
<glyph unicode="&#xe96f;" glyph-name="icon-radio" d="M512 960c-281.6 0-512-230.4-512-512s230.4-512 512-512c281.6 0 512 230.4 512 512s-230.4 512-512 512v0zM512 38.4c-225.28 0-409.6 184.32-409.6 409.6s184.32 409.6 409.6 409.6c225.28 0 409.6-184.32 409.6-409.6s-184.32-409.6-409.6-409.6v0z" />
<glyph unicode="&#xe970;" d="M521.402 796.851l-379.757-322.313c-20.927-17.764-52.798-15.427-70.837 5.225s-15.647 52.083 5.307 69.847l409.511 347.584c9.845 8.36 22.081 12.264 34.181 11.907l1.595-112.25z" />
<glyph unicode="&#xe971;" d="M521.561 394.588h-27.884c-56.537 0-102.625-47.408-102.625-105.705v-289.919h130.509v395.624z" />
<glyph unicode="&#xe972;" d="M688.922-1.041v289.919c0 68.036-53.794 123.514-120.351 123.514h-74.907c-66.493 0-120.434-55.526-120.434-123.514v-289.919c0-9.835 7.973-17.809 17.809-17.809s17.809 7.973 17.809 17.809v289.919c0 48.544 38.229 87.896 84.817 87.896h74.907c46.636 0 84.734-39.29 84.734-87.896v-289.919c0-9.835 7.973-17.809 17.809-17.809s17.809 7.973 17.809 17.809z" />
<glyph unicode="&#xe973;" d="M509.878 810.428c6.657 5.65 16.429 5.64 23.075-0.023l364.142-310.326c12.923-11.020 32.759-9.556 43.86 3.218 11.020 12.681 9.56 32.054-3.252 42.961l-396.235 337.69c-5.892 5.026-13.385 7.588-22.187 7.352-8.109 0.24-15.944-2.429-22.131-7.683l-409.519-347.591c-13.381-11.344-14.905-31.388-3.411-44.547 11.624-13.307 32.385-14.836 45.901-3.363l379.757 322.313zM521.378 773.473l-368.209-312.511c-28.349-24.065-71.328-20.9-95.774 7.086-24.582 28.142-21.326 70.96 7.195 95.14l409.508 347.581c12.986 11.028 29.432 16.63 45.167 16.133 16.471 0.5 32.61-5.017 45.311-15.851l396.222-337.678c27.889-23.743 31.057-65.801 7.040-93.439-23.928-27.534-66.074-30.645-93.85-6.96l-352.61 300.499z" />
<glyph unicode="&#xe974;" d="M159.832 501.737v-373.625c0-84.992 68.996-154.065 153.982-154.065h415.423c84.929 0 154.092 69.125 154.092 154.065v373.625c0 9.835-7.973 17.809-17.809 17.809s-17.809-7.973-17.809-17.809v-373.625c0-65.265-53.212-118.447-118.475-118.447h-415.423c-65.307 0-118.365 53.117-118.365 118.447v373.625c0 9.835-7.973 17.809-17.809 17.809s-17.809-7.973-17.809-17.809z" />
<glyph unicode="&#xe975;" glyph-name="icon-search" d="M115.715 508.679c0-89.008 35.358-174.371 98.297-237.309s148.301-98.297 237.309-98.297c185.35 0 335.606 150.256 335.606 335.606s-150.256 335.606-335.606 335.606c-185.35 0-335.606-150.256-335.606-335.606zM55.48 508.679c0 218.617 177.224 395.841 395.841 395.841s395.841-177.224 395.841-395.841c0-218.617-177.224-395.841-395.841-395.841-104.984 0-205.667 41.705-279.902 115.939s-115.939 174.918-115.939 279.902zM420.886 705.3c125.399 0 227.055-101.656 227.055-227.055 0-16.634 13.484-30.118 30.118-30.118s30.118 13.484 30.118 30.118c0 158.666-128.624 287.291-287.291 287.291-16.634 0-30.118-13.484-30.118-30.118s13.484-30.118 30.118-30.118zM694.299 223.108l263.26-263.26c11.762-11.762 30.831-11.762 42.593 0s11.762 30.831 0 42.593l-263.26 263.26c-11.762 11.762-30.831 11.762-42.593 0s-11.762-30.831 0-42.593z" />
<glyph unicode="&#xe976;" horiz-adv-x="1152" d="M607.289 276.86c0 8.713-14.009 15.776-31.289 15.776s-31.289-7.063-31.289-15.776v-273.927h62.578v273.927zM576 304.805c45.557 0 82.489-4.975 82.489-27.945v-299.742h-164.978v299.742c0 22.97 36.932 27.945 82.489 27.945z" />
<glyph unicode="&#xe977;" horiz-adv-x="1152" d="M425.412-26.979h301.176c17.673 0 32 14.327 32 32s-14.327 32-32 32h-301.176c-17.673 0-32-14.327-32-32s14.327-32 32-32z" />
<glyph unicode="&#xe978;" horiz-adv-x="1152" d="M128 887.34c-21.208 0-38.4-17.192-38.4-38.4v-497.778c0-21.208 17.192-38.4 38.4-38.4h896c21.208 0 38.4 17.192 38.4 38.4v497.778c0 21.208-17.192 38.4-38.4 38.4h-896zM128 938.54h896c49.485 0 89.6-40.115 89.6-89.6v-497.778c0-49.485-40.115-89.6-89.6-89.6h-896c-49.485 0-89.6 40.115-89.6 89.6v497.778c0 49.485 40.115 89.6 89.6 89.6z" />
<glyph unicode="&#xe979;" horiz-adv-x="1152" d="M119.917 888.035h456.083v-572.428h-456.083c-17.673 0-32 14.327-32 32v508.428c0 17.673 14.327 32 32 32z" />
<glyph unicode="&#xe97a;" horiz-adv-x="1152" d="M266.667 738.717v-277.333h618.667v277.333h-618.667zM234.667 770.717h682.667v-341.333h-682.667v341.333z" />
<glyph unicode="&#xe97b;" glyph-name="icon-searchterm" d="M793.547 193.585h90.816c51.413 0 93.091 41.678 93.091 93.091v533.687c0 51.413-41.678 93.091-93.091 93.091h-744.727c-51.413 0-93.091-41.678-93.091-93.091v-533.687c0-51.413 41.678-93.091 93.091-93.091h509.971v-192.403l143.94 192.403zM686.877-26.7c-26.812-35.84-83.815-16.877-83.815 27.882 0 61.401 0 93.728 0 145.857h-463.426c-77.119 0-139.636 62.517-139.636 139.636v533.687c0 77.119 62.517 139.636 139.636 139.636h744.727c77.119 0 139.636-62.517 139.636-139.636v-533.687c0-77.119-62.517-139.636-139.636-139.636h-67.509l-129.978-173.739zM354.233 458.689h-168.051v119.34c0 65.759 10.96 117.717 32.879 155.873s60.482 66.977 115.687 86.461l32.879-69.412c-63.324-20.296-94.985-62.105-94.985-125.429h81.59v-166.833zM591.696 457.471h-168.051v119.34c0 65.759 10.96 117.717 32.879 155.873s60.482 66.977 115.687 86.461l32.879-69.412c-63.324-20.296-94.985-62.105-94.985-125.429h81.59v-166.833z" />
<glyph unicode="&#xe97c;" horiz-adv-x="1117" d="M253.481 902.557l3.617 4.696c-27.298-35.439-32.898-42.709-179.302-232.777l4.835 14.202v-640.75c0-17.632 14.293-31.925 31.925-31.925h596.658c17.632 0 31.925 14.293 31.925 31.925v822.705c0 17.632-14.293 31.925-31.925 31.925h-457.734zM242.031 949.103h469.184c43.338 0 78.47-35.132 78.47-78.47v-822.705c0-43.338-35.132-78.47-78.47-78.47h-596.658c-43.338 0-78.47 35.132-78.47 78.47v640.75c0 5.138 1.7 10.131 4.835 14.202l182.672 237.152c4.406 5.72 11.217 9.071 18.437 9.071z" />
<glyph unicode="&#xe97d;" d="M378.256 504.592l502.705-502.705c21.326-21.326 55.895-21.35 77.25-0.053 21.316 21.316 21.316 55.792 0.053 77.055l-502.705 502.705c-21.326 21.326-55.895 21.35-77.25 0.053-21.316-21.316-21.316-55.792-0.053-77.055zM488.471 614.507l502.705-502.705c39.441-39.441 39.441-103.387 0-142.828-39.637-39.529-103.642-39.485-143.128 0l-502.705 502.705c-39.441 39.441-39.441 103.387 0 142.828 39.637 39.529 103.642 39.485 143.128 0z" />
<glyph unicode="&#xe97e;" glyph-name="icon-trophy" horiz-adv-x="1073" d="M243.81-39.619h585.143c13.465 0 24.381 10.916 24.381 24.381s-10.916 24.381-24.381 24.381h-585.143c-13.465 0-24.381-10.916-24.381-24.381s10.916-24.381 24.381-24.381zM582.57 155.429h-24.381c-7.648 0-15.189 0.124-20.995 0.372-7.433-0.248-14.974-0.372-22.622-0.372h-24.381v3.58c-178.059 19.684-286.031 120.812-319.525 303.387v473.223h731.429v-24.381l-0.41-453.293c-33.101-178.303-141.057-279.26-319.115-298.937v-3.58zM537.195 204.536c0.906-0.030 1.815-0.059 2.725-0.085l16.566 1.16c169.561 11.876 266.856 97.472 296.847 256.785v424.462h-633.927l-0.387-420.011c30.401-163.762 127.696-249.359 297.257-261.235l16.84-1.179c1.324 0.032 2.681 0.066 4.079 0.104zM532.886 493.964l-99.023-52.060 18.912 110.264-80.111 78.089 110.711 16.087 49.512 100.321 49.512-100.321 110.711-16.087-80.111-78.089 18.912-110.264zM521.541 515.545c7.103 3.734 15.588 3.734 22.691 0l55.297-29.071-10.561 61.574c-1.357 7.909 1.266 15.979 7.012 21.58l44.736 43.607-61.823 8.983c-7.941 1.154-14.806 6.142-18.357 13.337l-27.648 56.022-27.648-56.022c-3.551-7.196-10.416-12.183-18.357-13.337l-61.823-8.983 44.736-43.607c5.746-5.601 8.368-13.671 7.012-21.58l-10.561-61.574 55.297 29.071zM445.209 420.324c-17.887-9.404-38.792 5.785-35.376 25.702l16.745 97.631-70.933 69.142c-14.471 14.105-6.486 38.681 13.512 41.586l98.027 14.244 43.839 88.827c8.943 18.121 34.783 18.121 43.727 0l43.839-88.827 98.027-14.244c19.998-2.906 27.983-27.481 13.512-41.586l-70.933-69.142 16.745-97.631c3.416-19.917-17.489-35.105-35.376-25.702l-87.678 46.095-87.678-46.095zM73.143 740.571h122.739c13.465 0 24.381 10.916 24.381 24.381s-10.916 24.381-24.381 24.381h-147.12c-13.465 0-24.381-10.916-24.381-24.381v-235.818c0-13.465 10.916-24.381 24.381-24.381s24.381 10.916 24.381 24.381v211.437zM1000.453 740.571h-122.739c-13.465 0-24.381 10.916-24.381 24.381s10.916 24.381 24.381 24.381h147.12c13.465 0 24.381-10.916 24.381-24.381v-235.818c0-13.465-10.916-24.381-24.381-24.381s-24.381 10.916-24.381 24.381v211.437zM381.386 15.564l79.129 153.048-43.315 22.395-115.919-224.204h468.759l-114.421 224.094-43.428-22.174 78.201-153.158z" />
<glyph unicode="&#xe97f;" horiz-adv-x="1117" d="M71.366 710.976c-12.853 0-23.273-10.42-23.273-23.273s10.42-23.273 23.273-23.273h182.337c12.853 0 23.273 10.42 23.273 23.273v223.256c0 12.853-10.42 23.273-23.273 23.273s-23.273-10.42-23.273-23.273v-199.983h-159.064z" />
<glyph unicode="&#xe980;" horiz-adv-x="1117" d="M515.131 473.984l443.234-443.234c17.738-17.738 46.49-17.757 64.252-0.044 17.725 17.725 17.725 46.393 0.044 64.075l-443.234 443.234c-17.738 17.738-46.49 17.757-64.252 0.044-17.725-17.725-17.725-46.393-0.044-64.075zM612.339 570.927l443.234-443.234c35.859-35.859 35.859-93.998 0-129.856-36.035-35.937-94.224-35.897-130.121 0l-443.234 443.234c-35.859 35.859-35.859 93.998 0 129.856 36.035 35.937 94.224 35.897 130.121 0z" />
<glyph unicode="&#xe981;" horiz-adv-x="1117" d="M902.325 453.421c0-167.091-135.454-302.545-302.545-302.545s-302.545 135.454-302.545 302.545c0 167.091 135.454 302.545 302.545 302.545s302.545-135.454 302.545-302.545z" />
<glyph unicode="&#xe982;" horiz-adv-x="1117" d="M599.505 151.423c166.94 0 302.272 135.332 302.272 302.272s-135.332 302.272-302.272 302.272c-166.94 0-302.272-135.332-302.272-302.272s135.332-302.272 302.272-302.272zM599.505 104.878c-192.646 0-348.817 156.171-348.817 348.817s156.171 348.817 348.817 348.817c192.646 0 348.817-156.171 348.817-348.817s-156.171-348.817-348.817-348.817z" />
<glyph unicode="&#xe983;" horiz-adv-x="1117" d="M807.959 521.274c-37.659 80.135-118.332 132.402-208.454 132.402-10.283 0-18.618-8.336-18.618-18.618s8.336-18.618 18.618-18.618c75.556 0 143.176-43.81 174.753-111.003 4.373-9.306 15.463-13.305 24.769-8.932s13.305 15.463 8.932 24.769z" />
<glyph unicode="&#xe984;" d="M721.455 112.542l126.004 126.004-32.913 32.913-126.004-126.004z" />
<glyph unicode="&#xe985;" d="M791.273 541.091c0-205.651-166.713-372.364-372.364-372.364s-372.364 166.713-372.364 372.364c0 205.651 166.713 372.364 372.364 372.364s372.364-166.713 372.364-372.364z" />
<glyph unicode="&#xe986;" d="M412.26 182.026c201.978 0 365.714 163.736 365.714 365.714s-163.736 365.714-365.714 365.714c-201.978 0-365.714-163.736-365.714-365.714s163.736-365.714 365.714-365.714zM412.26 135.481c-227.685 0-412.26 184.575-412.26 412.26s184.575 412.26 412.26 412.26c227.685 0 412.26-184.575 412.26-412.26s-184.575-412.26-412.26-412.26z" />
<glyph unicode="&#xe987;" d="M461.949 495.442h-102.602v10.26c0 17.46 1.98 31.636 5.94 42.526s9.855 20.835 17.685 29.836c7.83 9 25.425 24.84 52.786 47.521 14.58 11.88 21.87 22.77 21.87 32.671s-2.925 17.595-8.775 23.085c-5.85 5.49-14.715 8.235-26.596 8.235-12.78 0-23.355-4.23-31.726-12.69s-13.725-23.22-16.065-44.281l-104.762 12.96c3.6 38.521 17.595 69.526 41.986 93.017s61.786 35.236 112.187 35.236c39.241 0 70.921-8.19 95.042-24.571 32.761-22.141 49.141-51.661 49.141-88.562 0-15.3-4.23-30.061-12.69-44.281s-25.74-31.591-51.841-52.111c-18.18-14.4-29.656-25.966-34.426-34.696s-7.155-20.115-7.155-34.156zM355.836 468.172h109.892v-96.932h-109.892v96.932z" />
<glyph unicode="&#xe988;" glyph-name="icon-rp" horiz-adv-x="985" d="M393.846-44.308c-206.639 0-374.154 167.514-374.154 374.154s167.514 374.154 374.154 374.154c206.639 0 374.154-167.514 374.154-374.154s-167.514-374.154-374.154-374.154zM393.846-4.923c184.888 0 334.769 149.881 334.769 334.769s-149.881 334.769-334.769 334.769c-184.888 0-334.769-149.881-334.769-334.769s149.881-334.769 334.769-334.769zM609.615 469.875c-31.866 67.807-100.127 112.033-176.384 112.033-8.701 0-15.754-7.053-15.754-15.754s7.053-15.754 15.754-15.754c63.932 0 121.149-37.070 147.868-93.926 3.701-7.874 13.084-11.258 20.958-7.557s11.258 13.084 7.557 20.958zM282.923 308.154h-16v-72.462c0-9.539-2.103-16.564-6.308-21.077s-9.692-6.769-16.462-6.769c-7.282 0-12.923 2.359-16.923 7.077s-6 11.641-6 20.769v173.538c0 9.846 2.205 16.974 6.615 21.385s11.538 6.615 21.385 6.615h74.308c10.256 0 19.026-0.436 26.308-1.308s13.846-2.641 19.692-5.308c7.077-2.974 13.333-7.231 18.769-12.769s9.564-11.974 12.385-19.308c2.821-7.333 4.231-15.103 4.231-23.308 0-16.821-4.744-30.256-14.231-40.308s-23.872-17.179-43.154-21.385c8.103-4.308 15.846-10.667 23.231-19.077s13.974-17.359 19.769-26.846c5.795-9.487 10.308-18.051 13.538-25.692s4.846-12.897 4.846-15.769c0-2.974-0.949-5.923-2.846-8.846s-4.487-5.231-7.769-6.923c-3.282-1.692-7.077-2.538-11.385-2.538-5.128 0-9.436 1.205-12.923 3.615s-6.487 5.462-9 9.154c-2.513 3.692-5.923 9.128-10.231 16.308l-18.308 30.462c-6.564 11.18-12.436 19.692-17.615 25.538s-10.436 9.846-15.769 12c-5.333 2.154-12.051 3.231-20.154 3.231zM309.077 402.923h-42.154v-62h40.923c10.974 0 20.205 0.949 27.692 2.846s13.205 5.128 17.154 9.692c3.949 4.564 5.923 10.846 5.923 18.846 0 6.256-1.59 11.769-4.769 16.538s-7.59 8.333-13.231 10.692c-5.333 2.256-15.846 3.385-31.538 3.385zM484 355.077v-5.077c7.897 9.744 16.103 16.897 24.615 21.462s18.154 6.846 28.923 6.846c12.923 0 24.82-3.333 35.692-10s19.462-16.41 25.769-29.231c6.308-12.821 9.462-28 9.462-45.538 0-12.923-1.82-24.795-5.462-35.615s-8.641-19.897-15-27.231c-6.359-7.333-13.872-12.974-22.538-16.923s-17.974-5.923-27.923-5.923c-12 0-22.077 2.41-30.231 7.231s-15.923 11.897-23.308 21.231v-63.077c0-18.462-6.718-27.692-20.154-27.692-7.897 0-13.128 2.385-15.692 7.154s-3.846 11.718-3.846 20.846v181.231c0 8 1.744 13.974 5.231 17.923s8.256 5.923 14.308 5.923c5.949 0 10.795-2.026 14.538-6.077s5.615-9.872 5.615-17.462zM566.308 294c0 11.077-1.692 20.59-5.077 28.538s-8.077 14.051-14.077 18.308c-6 4.256-12.641 6.385-19.923 6.385-11.59 0-21.359-4.564-29.308-13.692s-11.923-22.564-11.923-40.308c0-16.718 3.949-29.718 11.846-39s17.692-13.923 29.385-13.923c6.974 0 13.436 2.026 19.385 6.077s10.718 10.128 14.308 18.231c3.59 8.103 5.385 17.897 5.385 29.385zM806.607 710.28c9.613 13.11 22.191 24.090 37.67 33.050-14.627 6.841-26.653 15.419-36.067 25.852-5.889 6.527-11.064 14.014-15.551 22.463-5.692-9.163-12.31-17.219-19.885-24.155-9.291-8.507-19.912-15.779-31.844-21.849 12.661-7.518 23.853-16.628 33.528-27.356 7.6-8.427 14.246-17.404 19.936-26.911 3.663 6.495 7.734 12.799 12.212 18.907zM769.738 592.818c0 37.691-10.822 67.916-32.473 91.923-20.903 23.177-54.595 36.030-102.608 37.658-32.233 1.093-32.273 48.911-0.041 50.057 48.85 1.737 83.386 12.794 104.334 31.975 19.762 18.095 30.788 54.73 30.788 110.835 0 33.391 50.087 33.391 50.087 0 0-56.928 9.305-94.502 25.571-112.527 15.718-17.418 52.136-28.446 109.462-30.279 31.449-1.006 32.717-47.252 1.37-49.98-57.004-4.96-92.972-19.645-109.229-41.815-18.123-24.715-27.174-53.731-27.174-87.845 0-33.391-50.087-33.391-50.087 0z" />
</font>
</defs>
</svg>
